<?xml version="1.0" standalone="no"?>
<!DOCTYPE svg PUBLIC "-//W3C//DTD SVG 20010904//EN"
 "http://www.w3.org/TR/2001/REC-SVG-20010904/DTD/svg10.dtd">
<svg version="1.0" xmlns="http://www.w3.org/2000/svg"
 width="186.000000pt" height="186.000000pt" viewBox="0 0 186.000000 186.000000"
 preserveAspectRatio="xMidYMid meet">
<metadata>
Created by potrace 1.11, written by Peter Selinger 2001-2013
</metadata>
<g transform="translate(0.000000,186.000000) scale(0.100000,-0.100000)"
fill="#000000" stroke="none">
<path d="M417 1801 c-9 -15 -14 -31 -10 -34 3 -4 -2 -9 -11 -13 -9 -3 -16 -12
-16 -20 0 -8 -5 -14 -12 -14 -6 0 -9 -3 -6 -6 4 -3 -5 -22 -18 -41 -19 -28
-21 -39 -13 -50 9 -10 9 -12 -3 -8 -12 5 -37 -30 -40 -55 -1 -3 -8 -10 -17
-17 -9 -7 -12 -13 -8 -13 4 0 -4 -12 -18 -27 -26 -29 -205 -334 -205 -349 0
-5 42 -81 93 -169 l93 -160 189 -2 c105 0 195 -2 200 -3 6 -1 14 -2 18 -1 5 1
5 -4 1 -10 -3 -6 -3 -14 2 -18 5 -3 25 -37 45 -76 35 -65 67 -101 53 -58 -5
14 -4 15 4 3 8 -10 8 -18 0 -27 -7 -8 -7 -13 0 -13 16 0 34 27 22 35 -5 3 -10
11 -10 17 0 6 9 -1 21 -16 20 -26 18 -49 -4 -44 -7 2 -12 -2 -12 -7 0 -6 3 -9
7 -8 4 2 5 -3 3 -10 -3 -6 0 -19 5 -27 8 -12 13 -13 30 -2 27 17 39 15 16 -3
-11 -8 -16 -15 -12 -15 5 0 2 -8 -5 -17 -10 -11 -10 -14 -1 -9 8 5 12 1 12
-11 0 -15 2 -16 10 -3 5 8 10 10 10 4 0 -17 84 -11 92 6 5 11 7 10 7 -5 1 -17
3 -17 11 -5 6 10 10 11 10 3 0 -7 4 -13 10 -13 5 0 9 3 9 8 -3 19 2 32 12 32
8 0 8 -4 0 -14 -8 -10 -9 -16 -1 -21 5 -3 10 -1 10 4 0 6 5 11 11 11 5 0 8 -4
5 -9 -5 -8 3 -8 33 -2 2 1 -7 10 -20 22 -13 11 -19 18 -14 16 14 -7 38 20 25
28 -6 4 -8 11 -5 16 4 5 1 9 -4 9 -6 0 -11 5 -11 11 0 8 6 7 16 -2 15 -12 16
-11 10 11 -6 20 -5 22 4 10 10 -12 11 -11 6 9 -4 18 -2 21 7 12 9 -9 8 -19 -5
-42 -15 -26 -15 -31 -3 -35 12 -5 10 -10 -8 -25 -19 -16 -20 -18 -4 -19 9 0
17 -8 17 -17 0 -15 2 -14 14 3 8 10 18 16 22 11 4 -4 2 -7 -4 -7 -7 0 -12 -4
-12 -10 0 -15 24 -7 32 10 6 13 7 13 7 -1 1 -16 55 -21 79 -6 6 5 18 5 25 0
33 -21 78 0 85 40 3 15 0 16 -17 5 -11 -6 -19 -16 -18 -22 3 -13 -33 -20 -43
-9 -4 4 -4 17 1 28 9 18 9 18 5 -3 -3 -17 1 -22 16 -22 10 0 17 4 14 9 -3 5 5
16 19 25 14 9 26 15 26 14 8 -17 3 -51 -7 -55 -19 -7 -18 -20 1 -20 8 0 15 5
15 11 0 6 5 4 10 -4 6 -10 10 -11 10 -2 0 6 5 12 11 12 5 0 8 -3 6 -7 -3 -5
21 -8 54 -8 32 0 59 3 59 7 0 5 5 8 11 8 5 0 8 -4 5 -8 -3 -5 1 -9 9 -9 9 0
14 7 13 15 -2 8 3 16 10 18 7 1 8 0 3 -2 -12 -6 -3 -34 11 -34 5 0 6 5 2 12
-5 7 -3 8 7 2 24 -15 53 -10 71 12 23 29 20 64 -7 61 -11 -1 -19 3 -18 10 2 6
-6 11 -17 10 -11 -1 -20 -7 -20 -14 0 -7 -5 -13 -10 -13 -7 0 -7 6 -1 19 11
20 58 23 54 3 -2 -7 6 -11 20 -9 13 1 21 -3 19 -10 -1 -7 1 -13 5 -13 9 0 45
72 42 80 -2 3 9 18 24 34 15 16 25 32 22 36 -3 4 2 13 10 20 8 7 12 16 9 21
-3 5 1 12 10 15 8 3 19 19 25 35 8 24 6 36 -10 63 -17 29 -25 34 -47 30 -20
-3 -23 -2 -12 5 8 5 18 7 22 5 15 -9 8 8 -24 65 -39 70 -33 63 -60 65 -13 1
-22 7 -20 15 2 10 -5 12 -25 7 -23 -5 -25 -4 -10 5 20 12 52 4 42 -10 -3 -6 4
-9 14 -8 17 1 18 4 8 17 -7 8 -22 32 -32 53 -11 21 -28 45 -37 54 -10 9 -18
20 -18 25 0 4 -20 41 -43 81 -24 39 -63 105 -86 145 l-42 72 -195 0 c-187 0
-196 1 -201 20 -3 11 -9 20 -14 20 -5 0 -8 6 -7 13 2 6 -3 11 -10 9 -8 -1 -11
1 -8 6 3 5 -4 28 -16 51 -14 29 -25 40 -36 36 -11 -4 -12 -2 -4 7 12 15 -9 53
-22 41 -4 -4 -4 0 0 10 3 10 1 17 -6 17 -6 0 -8 5 -5 10 3 6 1 10 -4 10 -6 0
-10 3 -10 8 3 20 -2 25 -12 12 -8 -12 -9 -10 -4 8 4 15 2 24 -9 28 -8 3 -12
12 -9 20 4 12 -16 14 -123 12 -90 -2 -129 -7 -129 -15 0 -6 -3 -15 -7 -19 -4
-3 -6 3 -3 15 4 19 0 21 -53 21 -41 0 -53 -3 -42 -10 8 -5 10 -10 5 -10 -6 0
-15 4 -21 10 -6 6 -16 0 -27 -19z m309 -7 c1 -9 0 -13 -4 -10 -3 4 -7 14 -8
22 -1 9 0 13 4 10 3 -4 7 -14 8 -22z m-106 12 c0 -2 -8 -10 -17 -17 -16 -13
-17 -12 -4 4 13 16 21 21 21 13z m30 -27 c0 -5 -4 -9 -8 -9 -5 0 -9 7 -9 15 0
8 4 12 9 9 4 -3 8 -9 8 -15z m-200 1 c0 -5 -2 -10 -4 -10 -3 0 -8 5 -11 10 -3
6 -1 10 4 10 6 0 11 -4 11 -10z m51 -7 c13 -16 12 -17 -3 -5 -9 8 -23 10 -29
6 -8 -4 -9 -3 -5 4 10 17 21 15 37 -5z m-60 -20 c13 -16 12 -17 -3 -4 -10 7
-18 15 -18 17 0 8 8 3 21 -13z m294 7 c3 -6 -1 -7 -9 -4 -18 7 -21 14 -7 14 6
0 13 -4 16 -10z m-145 -4 c0 -2 -8 -10 -17 -17 -16 -13 -17 -12 -4 4 13 16 21
21 21 13z m-99 -19 c-6 -8 -8 -17 -4 -20 3 -4 1 -7 -5 -7 -15 0 -15 13 0 28
16 16 23 15 9 -1z m229 9 c0 -2 -8 -10 -17 -17 -16 -13 -17 -12 -4 4 13 16 21
21 21 13z m-153 -41 c0 -8 -4 -15 -9 -15 -10 0 -11 14 -1 23 9 10 10 9 10 -8z
m80 -10 c0 -8 -4 -12 -9 -9 -4 3 -8 9 -8 15 0 5 4 9 8 9 5 0 9 -7 9 -15z m173
9 c0 -8 -19 -13 -24 -6 -3 5 1 9 9 9 8 0 15 -2 15 -3z m-130 -8 c0 -2 -8 -10
-17 -17 -16 -13 -17 -12 -4 4 13 16 21 21 21 13z m81 -13 c13 -16 12 -17 -3
-4 -10 7 -18 15 -18 17 0 8 8 3 21 -13z m-361 -1 c0 -5 -7 -9 -15 -9 -8 0 -12
4 -9 9 3 4 9 8 15 8 5 0 9 -4 9 -8z m440 0 c0 -5 -7 -9 -15 -9 -8 0 -12 4 -9
9 3 4 9 8 15 8 5 0 9 -4 9 -8z m-344 -22 c0 -12 -4 -16 -9 -11 -5 5 -6 14 -3
20 10 15 12 14 12 -9z m38 -10 c-6 -6 -10 -3 -10 10 0 13 4 16 10 10 7 -7 7
-13 0 -20z m42 10 c0 -12 -4 -16 -9 -11 -5 5 -6 14 -3 20 10 15 12 14 12 -9z
m54 6 c0 -2 -8 -10 -17 -17 -16 -13 -17 -12 -4 4 13 16 21 21 21 13z m-189
-23 c13 -16 12 -17 -3 -4 -10 7 -18 15 -18 17 0 8 8 3 21 -13z m319 -7 c-7 -7
-13 -7 -20 0 -6 6 -3 10 10 10 13 0 16 -4 10 -10z m36 -12 c1 -9 0 -13 -4 -10
-3 4 -7 14 -8 22 -1 9 0 13 4 10 3 -4 7 -14 8 -22z m35 9 c13 -16 12 -17 -3
-4 -10 7 -18 15 -18 17 0 8 8 3 21 -13z m-407 -12 c-3 -4 -9 -6 -12 -6 -4 0
-12 -3 -18 -7 -6 -4 -11 -1 -11 5 0 7 11 13 23 13 13 0 21 -2 18 -5z m136 -1
c0 -5 -5 -10 -11 -10 -5 0 -7 5 -4 10 3 6 8 10 11 10 2 0 4 -4 4 -10z m160 6
c0 -3 -4 -8 -10 -11 -5 -3 -10 -1 -10 4 0 6 5 11 10 11 6 0 10 -2 10 -4z m174
-7 c3 -3 -5 -5 -19 -5 -13 0 -22 3 -19 7 4 8 30 6 38 -2z m-533 -16 c13 -16
12 -17 -3 -4 -10 7 -18 15 -18 17 0 8 8 3 21 -13z m159 -1 c0 -5 -7 -9 -15 -9
-8 0 -12 4 -9 9 3 4 9 8 15 8 5 0 9 -4 9 -8z m140 -6 c0 -2 -8 -10 -17 -17
-16 -13 -17 -12 -4 4 13 16 21 21 21 13z m40 -17 c0 -5 -4 -9 -8 -9 -5 0 -9 7
-9 15 0 8 4 12 9 9 4 -3 8 -9 8 -15z m40 17 c0 -2 -8 -10 -17 -17 -16 -13 -17
-12 -4 4 13 16 21 21 21 13z m34 -26 c-6 -6 -10 -3 -10 10 0 13 4 16 10 10 7
-7 7 -13 0 -20z m87 13 c13 -16 12 -17 -3 -4 -10 7 -18 15 -18 17 0 8 8 3 21
-13z m-450 -10 c13 -16 12 -17 -3 -4 -10 7 -18 15 -18 17 0 8 8 3 21 -13z
m100 -20 c13 -16 12 -17 -3 -4 -10 7 -18 15 -18 17 0 8 8 3 21 -13z m99 13 c0
-2 -8 -10 -17 -17 -16 -13 -17 -12 -4 4 13 16 21 21 21 13z m26 -32 c1 -9 0
-13 -4 -10 -3 4 -7 14 -8 22 -1 9 0 13 4 10 3 -4 7 -14 8 -22z m240 0 c1 -9 0
-13 -4 -10 -3 4 -7 14 -8 22 -1 9 0 13 4 10 3 -4 7 -14 8 -22z m-552 8 c3 -5
-1 -9 -9 -9 -8 0 -15 4 -15 9 0 4 4 8 9 8 6 0 12 -4 15 -8z m70 -8 c3 -8 2
-12 -4 -9 -6 3 -10 10 -10 16 0 14 7 11 14 -7z m56 13 c0 -2 -10 -12 -22 -23
l-23 -19 19 23 c18 21 26 27 26 19z m25 -7 c3 -5 1 -10 -4 -10 -6 0 -11 5 -11
10 0 6 2 10 4 10 3 0 8 -4 11 -10z m89 2 c3 -5 -1 -9 -9 -9 -8 0 -15 4 -15 9
0 4 4 8 9 8 6 0 12 -4 15 -8z m153 -7 c0 -8 -4 -12 -9 -9 -4 3 -8 9 -8 15 0 5
4 9 8 9 5 0 9 -7 9 -15z m80 0 c0 -8 -4 -12 -9 -9 -4 3 -8 9 -8 15 0 5 4 9 8
9 5 0 9 -7 9 -15z m128 6 c-9 -8 -36 -10 -30 -2 2 4 11 8 20 8 8 0 13 -3 10
-6z m-585 -25 c0 -2 -8 -10 -17 -17 -16 -13 -17 -12 -4 4 13 16 21 21 21 13z
m240 0 c0 -2 -8 -10 -17 -17 -16 -13 -17 -12 -4 4 13 16 21 21 21 13z m1004
-382 c3 -8 2 -12 -4 -9 -6 3 -10 10 -10 16 0 14 7 11 14 -7z m16 -35 c12 -8
10 -9 -9 -4 -14 4 -21 3 -18 -2 3 -5 -3 -17 -14 -26 -10 -9 -19 -13 -19 -7 0
5 8 14 18 19 9 6 13 11 9 11 -5 0 -5 5 -2 10 8 13 16 12 35 -1z m-64 -77 c4
-26 -7 -34 -26 -20 -12 8 -12 9 3 4 13 -4 17 -1 15 12 -2 9 -7 21 -13 25 -6 5
-4 7 4 5 8 -2 16 -14 17 -26z m21 -4 c-3 -8 -6 -5 -6 6 -1 11 2 17 5 13 3 -3
4 -12 1 -19z m59 -5 c-6 -6 -36 9 -36 18 0 5 9 4 20 -3 10 -7 18 -14 16 -15z
m39 -2 c3 -5 0 -13 -6 -17 -7 -4 -9 -3 -5 4 3 5 0 13 -6 15 -9 4 -10 6 -1 6 6
1 14 -3 18 -8z m-55 -23 c0 -6 -6 -6 -14 2 -12 9 -15 8 -13 -10 1 -15 7 -20
22 -18 15 2 20 -3 20 -21 0 -14 -7 -26 -15 -28 -9 -3 -11 -1 -5 4 20 16 16 40
-6 39 -21 -1 -35 27 -23 45 6 11 34 0 34 -13z m27 -10 c-3 -8 -6 -5 -6 6 -1
11 2 17 5 13 3 -3 4 -12 1 -19z m-117 8 c0 -2 -7 -7 -16 -10 -8 -3 -12 -2 -9
4 6 10 25 14 25 6z m40 -6 c0 -5 -5 -10 -11 -10 -5 0 -7 5 -4 10 3 6 8 10 11
10 2 0 4 -4 4 -10z m116 -13 c8 3 14 1 14 -5 0 -14 -33 -8 -36 7 -1 6 0 7 2 2
3 -6 12 -7 20 -4z m-146 -7 c0 -5 -4 -10 -10 -10 -5 0 -10 5 -10 10 0 6 5 10
10 10 6 0 10 -4 10 -10z m37 -16 c-3 -3 -12 -4 -19 -1 -8 3 -5 6 6 6 11 1 17
-2 13 -5z m80 -16 c-3 -8 -6 -5 -6 6 -1 11 2 17 5 13 3 -3 4 -12 1 -19z m44
-8 c6 0 7 5 3 12 -5 7 -3 8 5 3 9 -5 9 -11 3 -17 -12 -12 -32 -2 -31 15 0 9 2
9 6 0 2 -7 9 -13 14 -13z m-158 -7 c4 11 38 16 55 8 1 0 -5 -12 -14 -26 -9
-14 -20 -22 -25 -19 -5 3 -9 -4 -9 -15 0 -12 5 -20 12 -18 6 1 13 -7 15 -18 3
-18 2 -18 -5 -2 -4 10 -12 18 -17 18 -6 -1 -10 9 -10 22 0 12 5 21 11 20 5 -1
16 7 22 18 11 17 10 20 -5 17 -10 -2 -26 -14 -37 -28 -11 -15 -16 -18 -12 -7
3 11 0 20 -9 23 -8 4 -15 11 -15 17 0 5 8 2 19 -7 15 -14 19 -14 24 -3z m-38
-22 c-6 -5 -25 10 -25 20 0 5 6 4 14 -3 8 -7 12 -15 11 -17z m-40 -17 c-8 -6
-12 -14 -8 -18 4 -4 -1 -4 -11 0 -18 7 -17 8 1 18 11 6 18 18 16 26 -4 13 -3
13 6 0 8 -11 7 -18 -4 -26z m215 26 c0 -5 -4 -10 -10 -10 -5 0 -10 5 -10 10 0
6 5 10 10 10 6 0 10 -4 10 -10z m-44 -42 c-1 -13 -7 -22 -14 -21 -7 2 -11 -6
-9 -20 1 -12 -3 -21 -10 -20 -6 2 -11 -6 -10 -17 1 -12 8 -18 20 -17 13 1 21
-5 23 -20 5 -29 -10 -37 -27 -15 -13 15 -12 16 3 4 15 -12 17 -11 15 7 -1 14
-8 19 -21 18 -15 -2 -20 4 -21 23 0 15 5 24 12 23 8 -2 12 6 10 20 -1 12 3 21
10 20 6 -2 11 6 10 17 -1 11 -7 20 -14 20 -7 0 -13 5 -13 10 0 7 6 7 19 1 10
-6 18 -20 17 -33z m21 0 c-3 -8 -6 -5 -6 6 -1 11 2 17 5 13 3 -3 4 -12 1 -19z
m43 12 c0 -5 -4 -10 -10 -10 -5 0 -10 5 -10 10 0 6 5 10 10 10 6 0 10 -4 10
-10z m27 -12 c-3 -8 -6 -5 -6 6 -1 11 2 17 5 13 3 -3 4 -12 1 -19z m26 -5 c-4
-10 -2 -14 5 -9 6 3 13 2 16 -3 4 -5 -2 -8 -11 -7 -10 2 -18 12 -19 24 -1 12
2 19 7 16 4 -2 5 -12 2 -21z m-246 11 c-3 -3 -12 -4 -19 -1 -8 3 -5 6 6 6 11
1 17 -2 13 -5z m93 -4 c0 -5 -4 -10 -10 -10 -5 0 -10 5 -10 10 0 6 5 10 10 10
6 0 10 -4 10 -10z m-165 -20 c-3 -5 -12 -10 -18 -10 -7 0 -6 4 3 10 19 12 23
12 15 0z m81 -2 c8 -8 -14 -48 -26 -48 -6 0 -10 5 -10 11 0 5 5 7 10 4 6 -3
10 -4 10 -1 0 2 2 11 5 18 4 9 -2 14 -15 15 -11 1 -18 -2 -15 -8 4 -5 -4 -14
-17 -20 -13 -6 -25 -19 -25 -30 -1 -12 3 -17 9 -13 7 4 8 2 4 -5 -4 -6 -12 -9
-17 -6 -12 8 -5 48 9 53 7 2 10 8 7 13 -4 5 1 6 10 3 9 -4 15 -3 14 2 -3 19 2
24 21 21 11 -2 22 -6 26 -9z m197 -17 c-2 -12 1 -20 6 -17 4 3 17 -1 27 -10
18 -14 17 -14 -6 -3 -14 7 -27 12 -30 11 -3 0 -4 7 -3 16 1 12 -5 18 -17 18
-11 0 -20 -5 -20 -10 0 -5 -3 -7 -6 -3 -11 11 5 24 28 22 17 -2 22 -8 21 -24z
m-52 -15 c6 3 13 -3 16 -15 3 -12 9 -21 14 -21 5 0 9 -4 9 -10 0 -20 -20 -9
-26 15 -3 13 -11 23 -17 22 -6 -1 -12 5 -12 13 -1 8 0 9 2 2 3 -7 9 -9 14 -6z
m-701 -22 c0 -2 -7 0 -17 3 -10 4 -14 2 -9 -5 3 -6 2 -13 -4 -17 -6 -4 -8 -10
-5 -15 3 -4 -4 -19 -16 -31 -11 -13 -18 -18 -14 -11 3 6 2 12 -3 12 -5 0 -9
11 -9 25 0 14 2 24 4 21 4 -3 6 -12 12 -46 1 -3 5 2 11 10 6 9 5 19 -3 28 -9
11 -7 17 6 26 13 10 14 15 4 26 -7 7 0 5 16 -5 15 -9 27 -19 27 -21z m44 22
c-10 -8 -21 -12 -24 -10 -5 6 21 24 34 24 6 0 1 -6 -10 -14z m550 -6 c-6 -6
-15 -5 -24 1 -13 9 -12 10 3 5 9 -3 17 0 17 6 0 6 3 8 7 5 4 -4 2 -12 -3 -17z
m-874 -1 c0 -5 5 -7 12 -3 7 4 8 3 4 -5 -6 -9 -11 -9 -22 0 -17 14 -18 19 -4
19 6 0 10 -5 10 -11z m64 -4 c6 -18 -2 -45 -15 -45 -13 0 -11 18 3 22 6 2 8
10 4 17 -6 9 -12 7 -23 -8 -8 -12 -22 -21 -31 -20 -13 0 -12 2 4 9 12 4 24 15
27 24 8 20 23 21 31 1z m51 5 c-3 -5 -14 -10 -23 -10 -15 0 -15 2 -2 10 20 13
33 13 25 0z m45 -1 c0 -5 5 -7 12 -3 7 4 8 3 4 -5 -6 -9 -11 -9 -22 0 -17 14
-18 19 -4 19 6 0 10 -5 10 -11z m60 -1 c0 -6 -3 -8 -7 -5 -3 4 -12 -2 -20 -13
-8 -11 -21 -20 -30 -20 -9 0 -13 -3 -10 -7 4 -3 0 -17 -8 -29 -13 -21 -13 -24
2 -33 10 -5 16 -12 13 -14 -3 -3 -14 1 -24 9 -15 10 -17 16 -7 28 6 7 10 20 9
27 -2 7 8 18 21 25 13 7 28 20 33 28 10 19 28 21 28 4z m126 -23 c-9 -14 -22
-25 -29 -24 -9 0 -8 2 1 6 7 3 18 16 23 30 5 14 12 23 16 20 3 -4 -2 -18 -11
-32z m374 -4 c-6 -12 -15 -19 -21 -16 -5 4 -9 2 -9 -4 0 -5 6 -12 13 -14 9 -4
9 -6 0 -6 -7 -1 -17 8 -23 18 -9 17 -7 19 11 16 15 -3 19 0 15 11 -3 9 -1 12
4 9 6 -3 10 -1 10 6 0 7 3 10 6 7 3 -4 1 -16 -6 -27z m-580 9 c0 -5 -4 -10
-10 -10 -5 0 -10 5 -10 10 0 6 5 10 10 10 6 0 10 -4 10 -10z m653 -9 c-2 -6 6
-11 17 -11 11 0 19 6 18 13 -2 6 3 12 11 12 8 0 15 -6 17 -13 1 -7 0 -8 -3 -2
-7 14 -23 12 -20 -2 1 -8 -8 -13 -20 -13 -13 0 -23 4 -22 9 0 5 -5 13 -13 18
-10 8 -10 9 2 5 8 -2 14 -10 13 -16z m94 -3 c-3 -8 -6 -5 -6 6 -1 11 2 17 5
13 3 -3 4 -12 1 -19z m84 5 c13 -17 13 -17 -6 -3 -11 8 -22 16 -24 17 -2 2 0
3 6 3 6 0 17 -8 24 -17z m-681 -13 c-24 -15 -37 -11 -16 5 11 8 22 12 25 9 3
-3 -1 -9 -9 -14z m86 11 c-4 -5 -1 -12 4 -14 6 -3 5 -4 -2 -3 -15 3 -23 26 -8
26 6 0 9 -4 6 -9z m681 3 c-3 -3 -12 -4 -19 -1 -8 3 -5 6 6 6 11 1 17 -2 13
-5z m-942 -14 c8 -13 -5 -13 -25 0 -13 8 -13 10 2 10 9 0 20 -4 23 -10z m-85
-25 c0 -8 -2 -15 -4 -15 -2 0 -6 7 -10 15 -3 8 -1 15 4 15 6 0 10 -7 10 -15z
m59 -2 c0 -11 -3 -13 -6 -5 -2 6 -10 9 -15 6 -7 -4 -8 -2 -4 4 11 18 26 14 25
-5z m99 5 c-2 -6 -10 -13 -16 -14 -7 -1 -8 0 -2 3 5 2 8 9 4 14 -3 5 0 9 6 9
7 0 10 -5 8 -12z m112 2 c0 -5 -8 -10 -17 -10 -15 0 -16 2 -3 10 19 12 20 12
20 0z m43 -2 c-13 -6 -23 -15 -23 -20 0 -4 -6 -8 -12 -8 -7 1 -2 10 11 20 13
11 28 20 35 19 6 0 1 -5 -11 -11z m457 -3 c0 -1 -12 -2 -26 -2 -17 0 -22 2
-13 7 10 7 39 3 39 -5z m60 -3 c-14 -9 -26 -25 -28 -35 -3 -15 0 -16 17 -5 11
6 19 17 18 22 -1 6 9 11 23 11 15 0 24 -5 23 -12 -2 -7 4 -13 12 -13 8 0 15
-5 15 -10 0 -7 -7 -7 -20 0 -11 6 -18 15 -15 21 4 5 -3 9 -15 9 -12 0 -19 -4
-16 -9 3 -5 -5 -16 -19 -25 -14 -9 -26 -15 -26 -14 -8 17 -3 51 7 55 8 3 12 8
10 12 -3 4 5 8 17 8 20 2 20 1 -3 -15z m130 14 c0 -3 -4 -8 -10 -11 -5 -3 -10
-1 -10 4 0 6 5 11 10 11 6 0 10 -2 10 -4z m60 0 c0 -3 -4 -8 -10 -11 -5 -3
-10 -1 -10 4 0 6 5 11 10 11 6 0 10 -2 10 -4z m-944 -34 c-18 -16 -18 -16 -6
6 6 13 14 21 18 18 3 -4 -2 -14 -12 -24z m269 18 c-3 -5 -12 -10 -18 -10 -7 0
-6 4 3 10 19 12 23 12 15 0z m300 -11 c-4 -5 -12 -9 -18 -8 -9 0 -8 2 1 6 6 2
9 10 6 15 -4 7 -2 8 5 4 6 -4 9 -12 6 -17z m340 2 c-3 -6 -11 -9 -16 -5 -6 3
-9 -2 -7 -12 2 -11 10 -22 18 -26 11 -6 10 -7 -5 -5 -14 1 -20 10 -20 27 0 15
5 24 13 23 6 -2 12 2 12 9 0 6 3 9 6 5 3 -3 3 -11 -1 -16z m-935 -21 c0 -3
-10 -11 -22 -19 -21 -13 -22 -13 -9 3 8 9 11 20 7 23 -4 4 -11 1 -16 -7 -11
-17 -13 -9 -4 14 5 12 9 13 25 3 10 -6 19 -14 19 -17z m190 5 c8 -11 10 -17 6
-13 -5 4 -15 0 -22 -10 -11 -14 -15 -15 -26 -3 -11 12 -10 13 5 8 11 -4 17 -2
16 6 -2 17 0 41 4 36 1 -2 9 -13 17 -24z m134 3 c-5 -8 -1 -9 12 -4 15 6 16 5
7 -5 -10 -10 -15 -9 -27 1 -16 13 -12 35 5 24 5 -3 6 -10 3 -16z m336 12 c0
-5 -4 -10 -10 -10 -5 0 -10 5 -10 10 0 6 5 10 10 10 6 0 10 -4 10 -10z m-402
-26 c0 -17 -3 -22 -8 -13 -5 6 -6 18 -3 26 8 19 11 16 11 -13z m442 16 c0 -5
-7 -10 -15 -10 -8 0 -14 -6 -12 -12 1 -8 -8 -13 -20 -13 -13 0 -23 4 -22 10 0
5 -8 13 -18 17 -16 7 -16 8 2 5 11 -2 19 -9 18 -15 -2 -7 6 -12 18 -12 11 0
18 4 14 9 -3 6 3 14 12 20 23 13 23 13 23 1z m27 -12 c-3 -8 -6 -5 -6 6 -1 11
2 17 5 13 3 -3 4 -12 1 -19z m-618 2 c-6 -5 -18 -6 -26 -3 -19 8 -16 11 13 11
17 0 22 -3 13 -8z m181 -5 c5 3 15 -4 23 -16 9 -13 17 -16 22 -10 3 6 11 11
18 11 12 0 -23 -29 -35 -30 -5 0 -8 8 -8 18 0 13 -7 10 -28 -13 -15 -17 -26
-29 -25 -27 1 2 -4 10 -10 17 -9 10 -16 9 -35 -3 -12 -8 -25 -12 -29 -9 -3 4
6 11 21 16 14 6 26 16 26 22 0 6 9 1 20 -12 16 -20 19 -21 20 -6 0 9 5 17 12
17 9 0 9 3 0 12 -7 7 -12 17 -11 23 0 5 3 4 6 -3 2 -6 9 -10 13 -7z m597 -7
c-3 -8 -6 -5 -6 6 -1 11 2 17 5 13 3 -3 4 -12 1 -19z m73 18 c0 -3 -4 -8 -10
-11 -5 -3 -10 -1 -10 4 0 6 5 11 10 11 6 0 10 -2 10 -4z m-902 -48 c3 2 8 -2
10 -10 2 -9 0 -8 -7 2 -6 8 -11 11 -11 6 0 -5 -7 -3 -15 4 -8 7 -15 18 -15 24
0 6 7 2 16 -9 8 -11 18 -19 22 -17z m547 24 c-5 -4 -10 -14 -10 -22 0 -8 5
-19 10 -23 6 -5 4 -7 -5 -5 -8 3 -14 14 -13 26 1 31 2 32 16 32 7 0 8 -3 2 -8z
m111 -24 c-1 -12 -9 -24 -17 -26 -8 -2 -10 0 -4 5 6 4 11 17 13 28 3 20 2 20
-13 1 -8 -11 -15 -15 -15 -10 0 15 22 34 31 28 5 -3 7 -15 5 -26z m104 22 c0
-5 -4 -10 -10 -10 -5 0 -10 5 -10 10 0 6 5 10 10 10 6 0 10 -4 10 -10z m-720
-20 c0 -11 -4 -20 -9 -20 -5 0 -7 9 -4 20 3 11 7 20 9 20 2 0 4 -9 4 -20z
m100 5 c-14 -8 -29 -14 -35 -14 -5 0 1 6 15 14 14 8 30 14 35 14 6 0 -1 -6
-15 -14z m370 -6 c0 -14 -17 -10 -23 5 -4 10 -1 13 9 9 7 -3 14 -9 14 -14z
m-435 -9 c7 0 19 -7 26 -17 13 -15 11 -15 -18 1 -18 9 -33 22 -32 29 0 9 2 9
6 0 2 -7 10 -13 18 -13z m610 10 c3 -5 1 -10 -4 -10 -6 0 -11 5 -11 10 0 6 2
10 4 10 3 0 8 -4 11 -10z m43 -7 c-3 -19 -28 -31 -28 -13 0 6 5 8 12 4 8 -5 9
-2 5 9 -3 10 -2 17 4 17 6 0 9 -8 7 -17z m81 7 c-6 -5 -19 -6 -27 -2 -10 3
-13 1 -8 -6 7 -12 -32 -38 -42 -28 -3 3 0 6 7 6 7 0 9 4 6 10 -3 6 1 7 10 4 9
-4 15 -3 14 2 -3 18 2 22 27 22 17 0 22 -3 13 -8z m-509 -14 c0 -2 -6 -9 -14
-15 -11 -9 -16 -9 -22 0 -4 8 -3 9 4 5 7 -4 12 -2 12 3 0 6 5 11 10 11 6 0 10
-2 10 -4z m177 -16 c-1 -10 -3 -17 -6 -15 -2 3 -10 -3 -18 -13 -12 -15 -13
-14 -1 8 7 14 11 28 10 33 -1 4 2 7 7 7 6 0 9 -9 8 -20z m135 5 c-2 -5 5 -13
15 -17 16 -7 16 -8 -2 -5 -11 2 -19 9 -17 15 1 7 -7 12 -18 12 -11 0 -19 -5
-17 -12 1 -6 -7 -13 -18 -15 l-20 -3 20 9 c11 5 16 10 12 10 -5 1 -5 6 -2 12
8 13 51 8 47 -6z m220 7 c-13 -4 -22 -11 -21 -17 2 -5 -5 -11 -14 -13 -9 -2
-17 1 -17 7 0 6 7 8 15 4 9 -3 15 -2 14 3 -3 19 2 24 24 23 l22 -1 -23 -6z
m-838 -34 c-6 -20 -5 -21 10 -9 9 7 16 9 16 5 0 -11 -40 -37 -46 -31 -5 5 17
57 23 57 3 0 1 -10 -3 -22z m60 11 c-4 -8 1 -9 17 -5 13 3 18 3 11 0 -6 -3 -9
-10 -6 -16 4 -6 -2 -5 -15 1 -22 12 -29 31 -10 31 5 0 7 -5 3 -11z m126 1 c0
-5 -10 -14 -21 -21 -13 -6 -19 -7 -15 -1 3 6 0 13 -6 16 -7 3 -2 3 11 0 16 -4
21 -3 17 5 -4 6 -2 11 3 11 6 0 11 -4 11 -10z m141 1 c6 10 8 7 6 -8 -1 -17
-4 -19 -14 -11 -7 6 -13 16 -12 22 0 6 3 5 6 -3 5 -11 7 -11 14 0z m196 3 c-3
-3 -12 -4 -19 -1 -8 3 -5 6 6 6 11 1 17 -2 13 -5z m170 0 c-3 -3 -12 -4 -19
-1 -8 3 -5 6 6 6 11 1 17 -2 13 -5z m151 -14 c-7 -10 -14 -17 -17 -15 -4 4 18
35 25 35 2 0 -1 -9 -8 -20z m-710 -21 c8 -12 9 -18 4 -15 -6 3 -12 3 -15 -1
-2 -5 -2 -2 0 5 1 8 -3 12 -9 9 -7 -2 -11 -13 -10 -23 3 -14 1 -16 -8 -8 -9 9
-8 17 2 33 16 26 20 26 36 0z m186 -5 c15 -14 26 -27 24 -29 -2 -3 -13 3 -24
13 -11 10 -28 24 -39 30 -14 8 -16 11 -5 11 8 0 28 -11 44 -25z m218 1 c-2
-15 4 -21 18 -22 18 -2 19 1 10 13 -8 8 -8 14 -2 14 13 0 24 -28 13 -34 -18
-11 -46 2 -45 22 0 14 -5 20 -18 19 -10 -1 -18 -6 -18 -11 0 -5 -3 -7 -6 -3
-11 11 5 24 28 23 17 -1 22 -6 20 -21z m68 15 c0 -5 -4 -10 -10 -10 -5 0 -10
5 -10 10 0 6 5 10 10 10 6 0 10 -4 10 -10z m95 -21 c0 -19 -6 -24 -25 -24 -18
0 -25 6 -26 20 -1 29 5 35 29 31 16 -2 22 -10 22 -27z m-649 -45 c-12 -8 -13
-13 -3 -24 9 -9 7 -9 -10 1 -16 9 -19 16 -10 21 7 4 8 8 4 8 -5 0 -5 6 0 13 4
6 6 21 5 32 -2 14 2 11 13 -10 14 -26 14 -31 1 -41z m139 45 c-5 -15 -4 -19 4
-15 6 4 11 2 11 -3 0 -19 -19 -12 -31 10 -8 15 -8 19 0 15 6 -4 11 -2 11 3 0
6 3 11 6 11 3 0 2 -10 -1 -21z m84 -6 c0 -11 -3 -13 -6 -5 -2 6 -10 9 -15 6
-7 -4 -8 -2 -4 4 11 18 26 14 25 -5z m201 7 c0 -5 -5 -10 -11 -10 -5 0 -7 5
-4 10 3 6 8 10 11 10 2 0 4 -4 4 -10z m150 0 c-8 -5 -19 -10 -25 -10 -5 0 -3
5 5 10 8 5 20 10 25 10 6 0 3 -5 -5 -10z m-464 -19 c-4 -5 -3 -11 1 -14 5 -2
2 -2 -6 0 -8 2 -11 -2 -8 -11 4 -10 1 -13 -9 -9 -18 7 -18 13 4 29 20 16 25
17 18 5z m164 -23 c0 -12 -10 -9 -26 6 -20 21 -17 28 6 14 11 -7 20 -16 20
-20z m316 -4 c3 -16 2 -26 -1 -23 -3 4 -8 19 -11 35 -3 16 -2 26 1 23 3 -4 8
-19 11 -35z m124 26 c0 -5 -4 -10 -10 -10 -5 0 -10 5 -10 10 0 6 5 10 10 10 6
0 10 -4 10 -10z m-689 -37 c-12 -20 -14 -14 -5 12 4 9 9 14 11 11 3 -2 0 -13
-6 -23z m219 12 c0 -1 -12 -2 -26 -2 -17 0 -22 2 -13 7 10 7 39 3 39 -5z m90
0 c0 -1 -12 -2 -26 -2 -17 0 -22 2 -13 7 10 7 39 3 39 -5z m137 -7 c-3 -8 -6
-5 -6 6 -1 11 2 17 5 13 3 -3 4 -12 1 -19z m90 16 c-3 -3 -12 -4 -19 -1 -8 3
-5 6 6 6 11 1 17 -2 13 -5z m126 -12 c-2 -7 6 -12 17 -12 11 0 19 5 18 12 -2
6 5 14 15 16 9 2 17 -1 17 -7 0 -6 -7 -8 -15 -4 -10 3 -15 0 -13 -8 2 -9 -6
-14 -19 -14 -13 0 -23 4 -22 10 0 5 -8 13 -18 17 -16 7 -16 8 2 5 11 -2 19 -9
18 -15z m-633 -13 c-7 -11 -14 -18 -17 -15 -3 3 0 12 7 21 18 21 23 19 10 -6z
m460 17 c0 -3 -4 -8 -10 -11 -5 -3 -10 -1 -10 4 0 6 5 11 10 11 6 0 10 -2 10
-4z m117 -2 c-3 -3 -12 -4 -19 -1 -8 3 -5 6 6 6 11 1 17 -2 13 -5z m-59 -25
c2 -8 0 -10 -5 -4 -12 15 -47 19 -37 4 4 -8 3 -10 -5 -5 -6 4 -9 12 -6 17 9
13 48 4 53 -12z m-253 1 c3 -6 -1 -7 -9 -4 -18 7 -21 14 -7 14 6 0 13 -4 16
-10z"/>
<path d="M900 769 c0 -5 5 -7 10 -4 6 3 10 8 10 11 0 2 -4 4 -10 4 -5 0 -10
-5 -10 -11z"/>
<path d="M1463 581 c-1 -9 6 -17 16 -18 9 -1 17 6 18 16 1 9 -6 17 -16 18 -9
1 -17 -6 -18 -16z"/>
<path d="M845 550 c-3 -5 -1 -10 4 -10 6 0 11 5 11 10 0 6 -2 10 -4 10 -3 0
-8 -4 -11 -10z"/>
<path d="M765 630 c-3 -5 -1 -10 4 -10 6 0 11 5 11 10 0 6 -2 10 -4 10 -3 0
-8 -4 -11 -10z"/>
<path d="M99 324 c11 -8 21 -25 22 -37 0 -21 1 -21 9 -2 5 11 9 15 9 8 1 -6
18 -51 38 -99 l37 -88 13 32 c11 28 11 37 -3 64 -9 18 -24 55 -34 82 l-17 51
-48 2 c-45 2 -46 1 -26 -13z m81 -52 c0 -12 -3 -12 -15 -2 -8 7 -15 13 -15 15
0 1 7 2 15 2 8 0 15 -7 15 -15z m10 -37 c4 3 10 -1 13 -9 3 -8 -1 -17 -9 -20
-8 -3 -14 -1 -14 3 0 5 -2 15 -3 23 -2 7 -2 10 0 5 3 -4 8 -5 13 -2z m20 -61
c0 -8 4 -13 9 -10 5 4 7 -4 3 -16 -4 -16 -7 -18 -10 -8 -3 8 -9 23 -14 33 -5
11 -5 17 2 17 5 0 10 -7 10 -16z"/>
<path d="M281 310 c-6 -18 -6 -28 -1 -25 6 4 10 1 10 -4 0 -6 4 -11 9 -11 4 0
7 11 6 23 -3 25 23 34 37 13 5 -7 8 -5 8 6 0 9 8 19 18 21 9 3 -4 5 -30 6 -43
1 -47 -1 -57 -29z"/>
<path d="M700 274 c-11 -31 -19 -59 -16 -61 3 -3 8 7 12 21 5 20 9 24 19 16 9
-8 15 -8 20 0 8 14 -4 32 -16 24 -6 -3 -5 3 3 15 12 19 13 18 26 -25 11 -38
11 -47 -2 -59 -8 -8 -21 -15 -28 -16 -7 0 -3 -4 9 -9 27 -11 42 -58 22 -71 -9
-6 4 -8 37 -7 49 1 50 2 35 20 -18 21 -37 24 -43 6 -3 -7 -7 -3 -10 9 -5 17
-2 21 13 18 25 -5 25 21 -1 63 -11 18 -20 39 -20 47 0 20 -22 65 -31 65 -4 0
-17 -25 -29 -56z m80 -91 c0 -15 -2 -16 -10 -3 -8 12 -10 12 -10 1 0 -8 -3
-12 -6 -8 -8 7 4 27 17 27 5 0 9 -8 9 -17z"/>
<path d="M1060 294 c-13 -33 -13 -37 2 -32 6 2 12 16 12 31 2 34 -2 34 -14 1z"/>
<path d="M317 303 c-10 -9 -9 -23 1 -23 5 0 9 7 9 15 0 17 -1 18 -10 8z"/>
<path d="M320 267 c-33 -28 -40 -93 -9 -76 17 8 19 6 19 -21 0 -17 -5 -30 -12
-30 -10 0 -10 -2 0 -9 11 -7 11 -9 -2 -14 -12 -5 -16 1 -17 26 -2 27 -2 28 -6
7 -2 -14 -11 -30 -20 -37 -12 -10 -4 -11 42 -8 58 5 89 15 46 15 -22 0 -22 2
-17 85 3 47 4 85 3 85 -1 0 -13 -10 -27 -23z m12 -34 c-6 -2 -10 -8 -8 -12 3
-4 -1 -8 -8 -8 -8 0 -12 6 -9 14 3 7 13 13 22 12 10 0 11 -2 3 -6z"/>
<path d="M393 238 c1 -10 5 -18 9 -18 4 0 8 -7 8 -15 0 -8 9 -32 20 -52 22
-41 25 -70 10 -93 -8 -13 -11 -12 -24 5 -12 16 -16 17 -30 6 -19 -16 -5 -41
24 -41 27 0 38 19 71 121 17 52 36 97 42 101 7 5 0 8 -17 8 -22 0 -26 -3 -17
-13 8 -10 7 -22 -1 -45 -15 -40 -25 -40 -33 -3 -5 22 -11 28 -23 24 -11 -4 -9
1 7 15 l23 21 -35 -1 c-28 -1 -35 -5 -34 -20z m53 -46 c-3 -3 -1 -11 5 -19 6
-7 8 -13 3 -13 -5 0 -2 -5 6 -10 10 -6 11 -10 3 -10 -7 0 -19 13 -28 30 -19
36 -19 41 0 33 9 -3 13 -8 11 -11z"/>
<path d="M857 198 c3 -35 10 -69 16 -75 11 -16 53 -17 62 -3 4 6 11 8 16 4 5
-3 7 -9 4 -13 -2 -5 6 -6 18 -4 21 4 22 9 19 79 l-4 74 -28 -2 c-25 -2 -27 -4
-17 -25 7 -17 14 -20 22 -13 10 8 12 -2 12 -45 -1 -30 -5 -55 -10 -55 -4 0 -7
8 -6 18 1 9 0 28 -1 42 -2 21 -4 20 -9 -9 -6 -33 -33 -62 -47 -49 -4 4 -6 37
-6 73 0 36 -4 65 -10 65 -5 0 -6 -6 -2 -12 6 -10 4 -10 -7 0 -23 22 -27 13
-22 -50z m30 7 c0 -8 -4 -15 -9 -15 -4 0 -8 7 -8 15 0 8 4 15 8 15 5 0 9 -7 9
-15z m3 -71 c0 -8 -5 -12 -10 -9 -6 4 -8 11 -5 16 9 14 15 11 15 -7z"/>
<path d="M1025 251 c-3 -5 -1 -12 5 -16 5 -3 10 -31 10 -61 0 -49 2 -55 26
-64 14 -6 30 -10 35 -10 16 0 30 50 19 68 -7 13 -9 9 -10 -20 0 -21 -5 -38
-10 -38 -16 0 -31 50 -28 89 2 28 8 36 28 41 l25 6 -28 6 c-19 4 -30 0 -37
-11 -8 -14 -9 -14 -10 2 0 18 -15 23 -25 8z m39 -96 c5 -22 4 -26 -4 -15 -5 8
-10 24 -10 34 0 26 6 18 14 -19z"/>
<path d="M1172 242 c-24 -19 -37 -62 -27 -93 13 -39 115 -64 115 -28 0 6 5 7
10 4 18 -11 39 55 28 88 -17 46 -83 62 -126 29z m73 -2 c11 -18 14 -93 4 -112
-9 -17 -48 -26 -50 -10 -7 37 -4 118 5 124 15 11 34 10 41 -2z m48 -39 c2 -10
-1 -31 -9 -47 -13 -30 -14 -27 -17 43 -2 30 1 39 9 32 7 -5 14 -18 17 -28z
m-117 -3 c-5 -51 -5 -53 -17 -41 -9 9 -9 20 1 42 16 39 19 39 16 -1z"/>
<path d="M1340 186 c0 -50 -4 -76 -12 -79 -7 -3 7 -5 32 -5 33 0 38 2 20 7
-14 3 -26 12 -28 20 -3 12 0 12 12 1 18 -14 19 -11 16 42 -1 20 4 46 10 59 8
14 8 19 1 15 -6 -4 -11 -2 -11 3 0 6 -9 11 -20 11 -18 0 -20 -7 -20 -74z m25
44 c3 -5 1 -10 -4 -10 -6 0 -11 5 -11 10 0 6 2 10 4 10 3 0 8 -4 11 -10z m5
-62 c0 -10 -4 -18 -8 -18 -5 0 -9 14 -9 30 0 20 3 26 9 18 4 -7 8 -21 8 -30z"/>
<path d="M1420 253 c5 -2 10 -13 10 -24 0 -10 4 -19 10 -19 13 0 -4 43 -19 46
-6 1 -7 0 -1 -3z"/>
<path d="M1520 246 c21 -8 35 -19 35 -29 0 -10 -4 -17 -10 -16 -5 0 -9 7 -7
16 2 8 -1 12 -7 8 -15 -9 -14 -35 2 -35 8 0 8 -3 -2 -9 -8 -5 -11 -16 -7 -26
3 -10 2 -23 -4 -30 -8 -9 -6 -14 4 -18 9 -4 18 -1 22 5 5 7 8 7 13 0 4 -7 12
-8 21 -2 12 8 12 10 -4 10 -13 0 -17 5 -13 20 3 11 1 23 -4 26 -5 3 -9 -7 -10
-23 l0 -28 -10 25 c-8 21 -6 28 12 42 39 33 8 80 -51 77 -8 0 1 -6 20 -13z"/>
<path d="M1455 233 c1 -10 -3 -25 -10 -33 -7 -8 -12 -26 -11 -40 1 -14 -1 -32
-5 -41 -6 -12 -2 -15 19 -15 27 0 27 0 27 69 0 45 -4 72 -12 74 -6 2 -10 -4
-8 -14z m4 -80 c3 -55 -6 -55 -12 0 -3 30 -1 47 8 47 1 0 2 -21 4 -47z"/>
<path d="M1622 238 c-16 -16 -15 -35 2 -41 20 -8 44 22 27 33 -11 6 -11 9 0
13 11 4 10 6 -1 6 -9 1 -21 -4 -28 -11z m28 -24 c0 -2 -7 -4 -15 -4 -8 0 -15
4 -15 10 0 5 7 7 15 4 8 -4 15 -8 15 -10z"/>
<path d="M1689 218 c-1 -18 0 -46 1 -61 2 -28 -14 -57 -31 -57 -14 0 -11 68 4
73 6 3 -1 6 -18 6 -16 0 -25 -3 -20 -7 6 -4 11 -19 12 -34 1 -20 -2 -26 -13
-21 -8 3 -13 12 -10 19 3 8 1 14 -5 14 -6 0 -9 -8 -7 -17 4 -23 55 -48 71 -35
18 14 49 23 42 13 -9 -15 13 -23 32 -12 17 10 17 10 1 11 -14 0 -18 12 -20 67
-2 55 -6 68 -20 71 -14 3 -18 -4 -19 -30z m31 -33 c0 -8 -4 -16 -8 -19 -4 -2
-8 6 -8 19 0 13 4 21 8 19 4 -3 8 -11 8 -19z"/>
<path d="M725 231 c-6 -11 9 -23 19 -14 9 9 7 23 -3 23 -6 0 -12 -4 -16 -9z"/>
<path d="M129 160 c-3 -37 -8 -45 -29 -51 -17 -5 -10 -6 22 -5 26 1 50 5 55
10 4 5 3 6 -3 3 -17 -10 -32 13 -36 53 -4 34 -4 34 -9 -10z"/>
<path d="M666 174 c-9 -23 -4 -24 17 -2 13 14 14 18 3 18 -8 0 -17 -7 -20 -16z"/>
<path d="M1762 140 c0 -14 2 -19 5 -12 2 6 2 18 0 25 -3 6 -5 1 -5 -13z"/>
<path d="M643 122 c-9 -15 -7 -18 13 -18 19 0 21 3 11 16 -6 8 -12 16 -12 17
0 1 -6 -6 -12 -15z"/>
</g>
</svg>
