<?xml version="1.0" standalone="no"?>
<!DOCTYPE svg PUBLIC "-//W3C//DTD SVG 20010904//EN"
 "http://www.w3.org/TR/2001/REC-SVG-20010904/DTD/svg10.dtd">
<svg version="1.0" xmlns="http://www.w3.org/2000/svg"
 width="1024.000000pt" height="1024.000000pt" viewBox="0 0 1024.000000 1024.000000"
 preserveAspectRatio="xMidYMid meet">
<metadata>
Created by potrace 1.11, written by Peter Selinger 2001-2013
</metadata>
<g transform="translate(0.000000,1024.000000) scale(0.100000,-0.100000)"
fill="#000000" stroke="none">
<path d="M0 8775 c0 -1323 2 -1465 16 -1465 15 0 84 66 84 81 0 4 11 6 25 4
14 -1 28 2 32 8 3 6 1 7 -5 3 -7 -4 -12 -2 -12 3 0 6 9 12 20 12 41 3 45 4 45
19 0 8 5 15 10 15 6 0 28 19 49 43 21 23 45 42 54 42 8 0 13 3 9 6 -8 8 25 44
40 44 7 0 13 5 13 10 0 6 8 10 18 10 28 1 54 47 57 100 1 33 10 61 26 84 26
39 37 44 45 22 3 -8 18 -17 33 -21 18 -4 31 -16 38 -35 15 -41 36 -30 52 28
24 87 53 162 62 162 9 0 51 41 103 99 38 43 46 59 46 91 0 22 5 40 13 43 9 3
9 13 -3 48 -14 40 -18 44 -45 41 -16 -2 -35 -8 -43 -14 -7 -6 -29 -13 -50 -15
-33 -4 -42 0 -77 36 -21 23 -36 41 -33 41 4 0 0 16 -8 36 -20 47 -12 77 30
117 37 37 62 93 43 100 -9 3 -9 10 -1 28 31 63 42 111 43 186 1 36 5 45 29 57
35 18 94 7 127 -24 13 -12 29 -22 36 -23 18 -3 24 -20 10 -25 -6 -2 -11 2 -11
9 0 7 -3 9 -7 5 -4 -4 3 -16 17 -28 14 -11 20 -17 13 -14 -13 7 -12 -2 7 -66
11 -36 19 -47 39 -52 83 -17 131 -31 131 -37 0 -7 31 -3 60 8 8 4 19 5 24 4 5
-1 6 5 2 14 -3 9 0 18 8 21 16 6 14 77 -3 98 -7 8 -11 20 -10 28 3 20 -24 107
-32 102 -4 -2 -10 0 -14 6 -3 5 3 10 14 10 14 0 19 5 14 16 -3 9 -12 13 -22 8
-36 -14 -54 -17 -47 -6 3 6 -2 15 -11 21 -17 9 -17 10 0 16 9 4 24 5 32 1 19
-7 19 1 0 20 -9 9 -23 12 -39 8 -17 -4 -27 -1 -33 11 -5 9 -20 22 -34 28 -13
7 -25 21 -27 31 -2 11 -13 28 -23 39 -23 25 -25 80 -4 97 9 7 13 20 10 28 -3
9 0 12 9 9 11 -4 13 -1 9 11 -6 15 -5 15 10 3 15 -11 17 -11 17 2 0 8 -5 17
-12 19 -7 3 -9 12 -5 23 7 17 9 17 31 -4 21 -20 25 -21 33 -7 5 8 28 17 53 20
25 3 36 3 26 0 -30 -9 51 -36 89 -29 33 5 46 -1 64 -30 11 -18 11 -18 5 5 -4
14 -9 32 -12 40 -3 8 2 6 11 -5 14 -19 16 -19 22 -3 4 10 11 15 16 12 5 -3 9
0 9 5 0 6 -8 11 -18 11 -21 0 -62 27 -62 41 0 6 6 9 13 6 6 -2 11 -9 10 -15
-2 -6 7 -14 20 -17 55 -16 53 -17 49 20 -4 32 -2 35 21 35 14 0 33 7 41 16 9
8 20 12 26 9 5 -3 18 -1 27 4 11 6 13 11 5 11 -7 0 -1 11 14 25 24 23 22 31
-8 26 -15 -2 -8 37 7 43 9 3 15 0 15 -9 0 -8 8 -15 18 -14 10 0 12 3 5 6 -23
9 -14 25 10 18 18 -6 20 -5 10 6 -16 16 -17 33 -2 24 6 -4 36 -9 67 -11 46 -3
62 0 82 16 l25 20 -23 6 c-13 4 -21 11 -19 17 2 6 -8 21 -22 34 -23 19 -24 22
-7 23 12 0 16 5 12 16 -3 8 -2 13 3 9 5 -3 16 2 25 10 8 8 21 14 27 13 7 -2
15 5 17 16 3 13 0 16 -10 11 -10 -6 -11 -5 -1 5 10 11 16 10 33 -5 11 -10 17
-22 13 -28 -3 -5 -2 -7 4 -4 12 8 83 -13 83 -25 0 -4 7 -8 16 -8 15 0 209
-102 228 -120 11 -11 -9 -20 -158 -71 -101 -35 -131 -49 -139 -67 -8 -18 -8
-25 4 -33 11 -7 11 -9 -4 -9 -17 0 -43 -47 -32 -58 7 -7 352 97 387 117 25 14
33 29 29 54 -2 13 30 7 45 -8 14 -13 14 -15 0 -15 -9 0 -16 5 -16 12 0 7 -3 8
-9 3 -4 -6 -5 -42 -1 -81 12 -123 66 -187 169 -201 53 -7 122 26 180 86 41 43
42 44 25 12 -11 -18 -40 -52 -66 -75 -41 -35 -48 -46 -48 -78 0 -26 4 -38 14
-38 8 0 16 -10 18 -22 2 -12 9 -23 16 -26 7 -2 10 2 6 12 -3 9 -1 16 5 16 6 0
11 -5 11 -11 0 -8 5 -7 16 2 13 10 17 10 25 -2 7 -11 9 -10 10 6 1 11 1 32 0
47 -1 15 3 37 9 48 9 17 14 19 26 9 11 -9 17 -9 28 0 12 10 25 7 63 -14 40
-23 55 -26 93 -21 25 4 51 7 58 8 6 1 12 5 12 9 0 3 10 10 23 13 20 6 20 7 5
17 -10 5 -18 14 -18 20 0 6 7 6 18 1 9 -5 48 -12 87 -15 61 -4 67 -3 50 9 -10
8 -22 14 -27 14 -4 0 -8 4 -8 10 0 13 69 -13 119 -44 22 -14 43 -26 45 -26 3
0 114 -52 247 -115 133 -64 243 -114 245 -112 2 1 -136 71 -305 155 -170 84
-316 161 -326 172 -9 10 -23 16 -31 13 -8 -3 -14 0 -14 7 0 6 4 9 8 6 14 -9 7
117 -9 149 -8 16 -24 34 -35 40 -38 19 -56 38 -51 56 3 10 0 16 -7 14 -6 -3
-19 2 -30 10 -15 12 -17 20 -9 52 8 37 11 39 78 58 124 36 147 48 162 80 l14
30 -6 -29 c-6 -28 -5 -29 29 -23 20 3 36 2 36 -4 0 -5 5 -9 10 -9 6 0 10 7 10
15 0 9 6 12 15 9 9 -4 15 0 15 10 0 9 8 16 20 16 11 0 20 7 20 15 0 8 3 14 8
13 18 -5 92 13 87 22 -9 15 15 23 31 9 16 -13 29 -6 29 19 0 11 17 22 50 32
28 9 66 23 85 32 26 11 39 12 50 4 13 -9 13 -9 2 6 -11 14 -9 19 18 38 16 12
28 26 25 31 -7 10 6 12 29 3 9 -3 14 -9 11 -13 -2 -4 2 -8 9 -8 8 0 12 7 9 14
-4 11 1 12 21 7 25 -6 26 -4 22 22 -4 25 0 31 29 46 18 9 35 13 37 9 2 -4 16
-11 31 -15 24 -6 30 -3 34 14 3 11 11 20 18 20 17 0 58 37 46 42 -7 2 -7 8 0
18 8 12 12 12 16 2 4 -10 9 -10 23 3 13 12 20 13 25 5 6 -9 9 -9 15 -1 4 7 18
13 31 15 53 6 107 49 101 80 -2 10 0 16 6 12 5 -3 15 1 22 9 11 13 -229 15
-2089 15 l-2101 0 0 -1465z m400 1435 c0 -5 -4 -10 -9 -10 -6 0 -13 5 -16 10
-3 6 1 10 9 10 9 0 16 -4 16 -10z m-150 -68 c0 -41 -11 -46 -31 -15 -20 30
-17 43 12 43 14 0 19 -7 19 -28z m3796 -9 c-10 -10 -19 5 -10 18 6 11 8 11 12
0 2 -7 1 -15 -2 -18z m-3866 2 c0 -8 -4 -15 -10 -15 -5 0 -10 7 -10 15 0 8 5
15 10 15 6 0 10 -7 10 -15z m988 -88 c4 -19 -15 -22 -38 -7 -13 9 -13 11 0 20
19 13 34 8 38 -13z m1406 -3 c7 -19 -1 -34 -18 -34 -18 0 -39 27 -31 40 10 16
42 12 49 -6z m716 -24 c0 -5 -5 -10 -11 -10 -5 0 -7 5 -4 10 3 6 8 10 11 10 2
0 4 -4 4 -10z m449 -27 c8 -15 5 -18 -19 -18 -24 0 -27 3 -19 18 5 9 14 17 19
17 5 0 14 -8 19 -17z m-3376 -7 c7 -18 -1 -26 -25 -26 -11 0 -18 7 -18 20 0
23 35 28 43 6z m1803 -17 c10 -17 -13 -36 -27 -22 -12 12 -4 33 11 33 5 0 12
-5 16 -11z m1572 -7 c8 -6 2 -9 -18 -9 -20 0 -26 3 -18 9 7 4 15 8 18 8 3 0
11 -4 18 -8z m-3388 -117 c0 -8 -6 -15 -14 -15 -17 0 -28 14 -19 24 12 12 33
6 33 -9z m1770 -157 c0 -12 -14 -10 -28 4 -19 19 -14 29 8 16 11 -7 20 -16 20
-20z m-1240 -38 c0 -5 -4 -10 -9 -10 -6 0 -13 5 -16 10 -3 6 1 10 9 10 9 0 16
-4 16 -10z m388 -58 c4 -24 -7 -29 -26 -10 -18 18 -15 40 6 36 9 -2 18 -13 20
-26z m-147 -92 c21 -12 26 -46 7 -53 -31 -11 -64 34 -41 56 8 9 11 9 34 -3z
m1421 -97 c-2 -13 -9 -26 -15 -30 -7 -4 -8 0 -4 11 4 10 7 32 8 49 0 25 2 28
8 13 4 -11 6 -30 3 -43z m-136 -19 c2 -16 7 -36 10 -44 4 -11 2 -12 -6 -4 -6
6 -13 28 -15 49 -6 44 3 43 11 -1z m414 -59 c0 -19 -20 -29 -32 -17 -8 8 -7
16 2 26 14 17 30 12 30 -9z m-1462 -20 c-3 -3 -9 2 -12 12 -6 14 -5 15 5 6 7
-7 10 -15 7 -18z m1142 5 c0 -28 -93 -40 -133 -18 -21 12 -19 13 23 19 73 10
110 10 110 -1z m230 -5 c0 -8 -4 -15 -10 -15 -5 0 -7 7 -4 15 4 8 8 15 10 15
2 0 4 -7 4 -15z m159 6 c8 -5 11 -16 8 -24 -3 -8 0 -20 6 -26 20 -20 -2 -23
-24 -3 -16 16 -30 20 -53 15 l-31 -5 29 26 c31 28 43 31 65 17z m-2009 -31 c9
-16 8 -18 -5 -14 -8 4 -15 12 -15 20 0 20 7 17 20 -6z m2110 -25 c-6 -15 -6
-27 0 -30 22 -14 8 -23 -20 -14 -16 6 -30 17 -30 24 0 7 -3 21 -7 31 -4 12 -3
15 5 10 7 -4 20 -3 29 3 25 13 34 4 23 -24z m-1723 9 c-3 -3 -12 -4 -19 -1 -8
3 -5 6 6 6 11 1 17 -2 13 -5z m-353 -12 c3 -5 -1 -9 -9 -9 -8 0 -12 4 -9 9 3
4 7 8 9 8 2 0 6 -4 9 -8z m1772 -60 c-23 -23 -26 -12 -8 28 14 33 16 33 20 11
2 -13 -3 -31 -12 -39z m-1720 10 c-8 -14 -46 -3 -46 13 0 7 6 15 13 18 16 6
41 -18 33 -31z m-434 -707 c0 -5 -5 -11 -11 -13 -6 -2 -11 4 -11 13 0 9 5 15
11 13 6 -2 11 -8 11 -13z m-250 -620 c0 -5 -5 -11 -11 -13 -6 -2 -11 4 -11 13
0 9 5 15 11 13 6 -2 11 -8 11 -13z m-92 -135 c0 -5 -4 -10 -10 -10 -5 0 -10 5
-10 10 0 6 5 10 10 10 6 0 10 -4 10 -10z"/>
<path d="M4813 10233 c9 -2 25 -2 35 0 9 3 1 5 -18 5 -19 0 -27 -2 -17 -5z"/>
<path d="M4898 10233 c12 -2 32 -2 45 0 12 2 2 4 -23 4 -25 0 -35 -2 -22 -4z"/>
<path d="M7791 10203 c19 -21 75 -81 124 -133 116 -123 184 -213 285 -380 46
-74 90 -147 99 -162 9 -14 35 -54 59 -88 23 -34 42 -67 42 -73 0 -6 3 -7 6 -4
4 4 18 -15 31 -41 14 -26 30 -51 37 -57 6 -5 25 -32 41 -60 16 -27 34 -54 40
-60 6 -5 23 -26 37 -46 28 -38 23 -59 -14 -59 -10 0 -18 -4 -18 -10 0 -5 -4
-10 -10 -10 -5 0 -9 3 -7 8 1 4 -3 7 -8 7 -5 0 -8 -4 -6 -10 2 -5 4 -16 4 -22
0 -7 6 -13 13 -13 22 0 -28 -67 -60 -81 -23 -10 -33 -10 -55 4 -22 13 -26 23
-25 57 2 42 -11 51 -31 23 -13 -17 -14 -17 -33 0 -16 14 -29 16 -78 11 -67 -8
-152 -42 -174 -69 -8 -10 -10 -16 -3 -12 13 8 55 -14 84 -43 18 -18 19 -51 1
-72 -8 -10 -8 -18 -1 -25 7 -7 0 -12 -24 -17 -33 -6 -66 -31 -55 -42 7 -7 125
26 277 76 76 25 128 37 134 31 12 -12 15 -11 -178 -75 -93 -31 -183 -65 -200
-77 l-30 -20 35 6 c19 4 40 11 45 15 6 4 33 10 60 13 l50 6 -35 -15 c-19 -9
-45 -20 -57 -25 -14 -5 -23 -17 -23 -29 0 -25 22 -26 45 0 19 21 96 37 116 24
16 -10 -54 -42 -93 -43 -21 -1 -28 -6 -28 -21 0 -16 5 -19 30 -13 24 4 29 3
25 -9 -9 -22 21 -44 39 -29 11 9 19 9 34 0 16 -10 23 -10 36 0 24 20 19 33
-12 30 -49 -6 -73 25 -28 37 13 3 40 -2 61 -10 28 -12 46 -14 71 -7 19 5 43 7
54 4 15 -4 20 0 20 16 0 11 5 21 10 21 6 0 10 -8 10 -17 0 -14 3 -14 12 -5 9
9 10 15 2 20 -6 4 -13 17 -16 29 -4 16 0 22 18 26 16 3 24 0 24 -9 0 -31 28
-11 38 26 7 28 7 40 -1 40 -6 0 -7 3 -3 8 4 4 13 7 18 7 6 0 13 6 16 14 3 10
-1 12 -17 8 -14 -3 -21 -1 -21 10 0 10 6 12 23 8 12 -4 26 -11 30 -15 17 -15
164 -442 193 -557 9 -37 22 -79 29 -93 42 -83 172 -634 179 -760 2 -47 23
-200 45 -340 51 -325 63 -412 64 -480 2 -54 1 -55 -30 -65 -35 -10 -43 -29
-17 -39 14 -5 14 -9 3 -23 -11 -13 -11 -17 -1 -20 14 -5 17 -103 3 -103 -5 0
-11 6 -14 13 -3 9 -9 8 -22 -4 -15 -15 -15 -19 -1 -53 8 -20 22 -36 30 -36 8
0 22 -14 30 -32 19 -36 20 -41 6 -33 -6 4 -10 -14 -10 -47 0 -30 -5 -59 -11
-65 -6 -6 -8 -17 -3 -24 4 -7 7 -31 7 -54 -2 -79 2 -86 77 -104 22 -6 25 -12
24 -48 0 -24 2 -40 5 -38 7 8 31 -17 25 -26 -3 -5 2 -9 10 -9 8 0 26 -11 40
-25 14 -14 28 -25 32 -25 13 0 33 35 34 58 0 24 19 31 21 7 1 -8 3 -19 4 -25
1 -5 3 -14 4 -20 2 -22 20 -8 32 25 7 19 16 35 19 35 4 0 26 -18 50 -40 23
-22 46 -37 51 -35 4 3 19 1 34 -5 19 -7 24 -7 19 2 -4 7 -3 8 4 4 7 -4 21 -9
32 -11 18 -4 20 2 19 73 -1 43 3 78 9 80 6 2 7 14 2 32 -4 15 -11 93 -15 172
-3 78 -8 157 -10 173 -2 17 -7 77 -10 135 -4 58 -8 112 -10 120 -3 8 -7 40
-10 70 -33 313 -116 767 -201 1105 -155 611 -349 1117 -618 1614 -31 58 -54
112 -51 120 2 9 0 23 -6 31 -8 11 -9 9 -4 -10 9 -31 -5 -19 -32 27 -119 208
-318 486 -474 663 -41 47 -88 100 -104 118 l-28 32 -191 0 -190 0 35 -37z
m815 -1300 c-10 -10 -19 5 -10 18 6 11 8 11 12 0 2 -7 1 -15 -2 -18z m32 -33
c-14 -22 -24 -25 -33 -11 -3 6 3 14 12 20 28 16 34 13 21 -9z m32 -46 c0 -8
-9 -14 -20 -14 -22 0 -26 10 -8 28 13 13 28 7 28 -14z m-430 -24 c0 -21 -15
-27 -25 -10 -7 12 2 30 16 30 5 0 9 -9 9 -20z m1297 -1942 c-3 -7 -5 -2 -5 12
0 14 2 19 5 13 2 -7 2 -19 0 -25z m10 -75 c-3 -10 -5 -4 -5 12 0 17 2 24 5 18
2 -7 2 -21 0 -30z m10 -80 c-3 -10 -5 -4 -5 12 0 17 2 24 5 18 2 -7 2 -21 0
-30z m10 -90 c-3 -10 -5 -2 -5 17 0 19 2 27 5 18 2 -10 2 -26 0 -35z m-217
-14 c0 -5 -5 -7 -10 -4 -6 4 -24 0 -40 -9 -29 -14 -48 -7 -35 14 8 13 85 13
85 -1z m227 -81 c-2 -13 -4 -5 -4 17 -1 22 1 32 4 23 2 -10 2 -28 0 -40z
m-380 -85 c-4 -17 -4 -17 -12 0 -4 9 -4 25 0 35 8 16 8 16 12 0 3 -10 3 -26 0
-35z m390 -15 c-2 -13 -4 -5 -4 17 -1 22 1 32 4 23 2 -10 2 -28 0 -40z m-247
-8 c0 -5 -9 -10 -20 -10 -11 0 -20 5 -20 10 0 6 9 10 20 10 11 0 20 -4 20 -10z
m320 -24 c0 -9 -7 -12 -20 -9 -11 3 -20 9 -20 14 0 5 9 9 20 9 11 0 20 -6 20
-14z m-447 -33 c6 -38 2 -53 -14 -53 -5 0 -9 20 -9 45 0 54 15 60 23 8z m384
-70 c-2 -16 -4 -3 -4 27 0 30 2 43 4 28 2 -16 2 -40 0 -55z m-376 -25 c1 -18
3 -46 5 -63 1 -16 5 -89 7 -161 2 -72 7 -136 11 -142 11 -18 -2 -14 -23 6 -16
15 -19 41 -24 205 -5 160 -4 187 8 187 10 0 15 -11 16 -32z m401 -345 c5 -158
4 -183 -6 -172 -7 7 -12 339 -5 339 3 0 9 -75 11 -167z m-292 -117 c0 -3 -4
-8 -10 -11 -5 -3 -10 -1 -10 4 0 6 5 11 10 11 6 0 10 -2 10 -4z"/>
<path d="M8676 10224 c-3 -9 -2 -23 4 -32 10 -19 11 -18 14 21 2 30 -8 36 -18
11z"/>
<path d="M8714 10229 c-4 -7 -8 -21 -9 -33 -1 -11 -3 -24 -4 -28 0 -4 -9 -4
-18 -1 -17 7 -17 6 0 -11 9 -9 17 -26 17 -36 0 -10 6 -21 13 -23 6 -3 -4 -4
-23 -1 -32 4 -33 3 -12 -7 30 -16 31 -59 1 -59 -15 0 -19 -5 -15 -15 3 -8 -2
-22 -11 -31 -15 -15 -15 -17 0 -26 9 -5 17 -18 17 -29 0 -11 4 -28 9 -37 4 -9
11 -37 15 -61 6 -38 5 -42 -8 -32 -13 11 -14 9 -6 -16 5 -15 14 -48 21 -73 7
-25 16 -50 21 -56 5 -6 6 -18 2 -27 -3 -8 -1 -18 5 -22 7 -3 8 0 5 9 -3 9 -1
16 4 16 6 0 13 -8 15 -17 4 -15 5 -14 6 3 0 11 -4 25 -11 32 -6 6 -9 14 -6 17
3 3 13 -9 21 -27 13 -26 17 -29 18 -13 1 11 2 28 1 37 -1 12 6 9 30 -13 18
-16 40 -29 50 -29 10 0 18 -4 18 -8 0 -5 10 -14 23 -21 l22 -12 -22 5 c-13 2
-23 0 -23 -5 0 -5 8 -9 18 -9 25 -1 68 -35 53 -44 -6 -4 -11 -1 -11 6 0 7 -11
1 -25 -14 -30 -32 -31 -38 -7 -38 19 -1 52 -23 52 -35 0 -5 -7 -17 -17 -27 -9
-10 -13 -21 -9 -25 4 -4 12 -1 17 7 8 12 9 10 4 -6 -5 -18 -1 -21 32 -22 79
-2 173 -32 173 -55 0 -4 -3 -6 -7 -4 -11 7 -33 -19 -25 -28 4 -4 -2 -5 -12 -3
-11 1 -21 -4 -23 -12 -4 -13 -3 -13 6 0 6 8 11 10 11 4 0 -6 13 -9 30 -6 29 4
37 -6 31 -40 0 -5 6 -8 14 -8 8 0 15 -4 15 -10 0 -5 -9 -10 -20 -10 -11 0 -20
-7 -20 -15 0 -8 9 -15 20 -15 11 0 20 -7 20 -15 0 -8 4 -15 10 -15 5 0 7 -6 4
-14 -5 -14 39 -49 50 -39 11 11 46 13 46 3 0 -6 -7 -10 -15 -10 -8 0 -15 -7
-15 -15 0 -8 9 -15 20 -15 10 0 23 -8 29 -17 8 -15 11 -15 26 -3 14 11 19 10
38 -8 12 -12 16 -22 9 -22 -7 0 -12 -9 -12 -20 0 -11 4 -20 10 -20 9 0 36 42
31 48 -2 2 0 6 3 9 3 4 6 -3 6 -15 0 -24 34 -32 43 -9 4 9 8 9 15 -2 7 -10 22
-12 56 -7 48 8 52 4 47 -44 -1 -12 1 -11 12 3 9 10 24 16 38 14 21 -4 24 -10
25 -48 3 -91 3 -92 18 -80 7 6 20 9 27 6 18 -6 69 34 52 42 -16 6 -17 33 -2
33 14 0 69 -59 69 -74 0 -7 18 -22 40 -34 22 -11 40 -17 40 -12 0 4 -5 10 -12
12 -7 3 -8 10 -4 17 11 17 26 -4 26 -36 0 -37 58 -23 71 16 4 10 10 6 22 -13
l17 -26 -34 0 c-28 0 -34 -3 -30 -15 4 -10 13 -13 25 -10 13 4 19 1 19 -9 0
-19 1 -19 34 -6 17 6 26 6 26 0 0 -6 -7 -10 -15 -10 -8 0 -15 -5 -15 -11 0 -6
6 -9 14 -6 8 3 20 -1 28 -10 10 -13 10 -17 1 -20 -27 -10 -11 -23 27 -23 29 0
40 -4 40 -16 0 -12 54 -44 75 -44 3 0 5 374 5 830 l0 830 -186 0 -186 0 -20
-26 c-25 -31 -62 -29 -66 3 l-3 21 -441 1 c-243 1 -439 -2 -435 -5 4 -4 1 -14
-6 -22 -10 -13 -9 -15 3 -8 8 4 7 1 -3 -8 -11 -8 -26 -12 -35 -8 -15 5 -15 4
-3 -11 12 -15 12 -17 -3 -11 -19 7 -22 34 -3 35 6 0 3 4 -8 9 -19 8 -19 9 2 9
32 1 36 16 5 19 -14 1 -29 -4 -34 -10 -6 -10 -8 -10 -8 0 0 16 -86 17 -96 1z
m1072 -175 c-3 -17 -32 -44 -48 -44 -10 0 -11 44 -1 53 3 4 16 7 29 7 15 0 21
-5 20 -16z m-1028 -55 c9 0 2 -5 -16 -10 -22 -7 -38 -6 -50 1 -14 9 -13 10 10
6 23 -5 26 -3 21 17 -4 19 -3 20 7 5 6 -10 19 -18 28 -19z m-56 -30 c16 -9 23
-8 29 2 7 12 13 11 35 -1 15 -8 29 -20 31 -26 5 -14 -45 -11 -74 4 -12 7 -31
12 -42 12 -12 0 -21 5 -21 10 0 13 16 13 42 -1z m96 -59 c3 -8 0 -10 -8 -5 -7
5 -11 4 -8 -1 3 -5 2 -27 -2 -49 -7 -39 -8 -38 -9 18 -1 41 3 57 11 55 6 -2
14 -10 16 -18z m322 -19 c0 -12 -20 -25 -27 -18 -7 7 6 27 18 27 5 0 9 -4 9
-9z m-313 -23 c-3 -8 -6 -5 -6 6 -1 11 2 17 5 13 3 -3 4 -12 1 -19z m645 7 c0
-5 -5 -11 -11 -13 -6 -2 -11 4 -11 13 0 9 5 15 11 13 6 -2 11 -8 11 -13z m418
11 c0 -3 -4 -8 -10 -11 -5 -3 -10 -1 -10 4 0 6 5 11 10 11 6 0 10 -2 10 -4z
m-954 -59 c2 -1 -3 -16 -11 -31 -20 -38 -19 -43 5 -21 11 10 20 25 20 34 1 11
5 8 14 -9 17 -30 11 -43 -15 -35 -11 4 -19 2 -19 -4 0 -20 -27 -11 -40 14 -7
13 -17 22 -22 19 -11 -7 -10 3 2 27 8 14 18 18 37 15 14 -3 27 -7 29 -9z
m-106 -1 c0 -3 -4 -8 -10 -11 -5 -3 -10 -1 -10 4 0 6 5 11 10 11 6 0 10 -2 10
-4z m20 -40 c0 -3 -4 -8 -10 -11 -5 -3 -10 -1 -10 4 0 6 5 11 10 11 6 0 10 -2
10 -4z m38 -32 c3 -18 2 -18 -8 -1 -6 9 -16 14 -22 11 -7 -4 -8 -2 -4 5 11 17
30 8 34 -15z m-21 -41 c-3 -10 -5 -4 -5 12 0 17 2 24 5 18 2 -7 2 -21 0 -30z
m-30 5 c-3 -8 -6 -5 -6 6 -1 11 2 17 5 13 3 -3 4 -12 1 -19z m546 -76 c-2 -10
-12 -18 -21 -19 -13 -1 -17 6 -16 25 1 15 3 28 3 30 1 1 10 -2 20 -8 12 -6 17
-17 14 -28z m-414 -65 c12 -15 12 -17 -3 -11 -9 3 -16 13 -16 22 0 8 1 13 3
11 1 -2 9 -12 16 -22z m589 -143 c-9 -9 -21 -13 -27 -10 -20 13 -11 26 16 26
25 0 26 -1 11 -16z m176 -69 c4 -10 -1 -15 -14 -15 -13 0 -18 5 -14 15 4 8 10
15 14 15 4 0 10 -7 14 -15z m77 -13 c-6 -2 -9 -7 -7 -11 3 -4 -1 -8 -9 -8 -8
0 -15 8 -15 17 0 24 11 32 28 18 9 -8 10 -14 3 -16z m-501 -13 c7 -12 6 -20
-2 -25 -7 -4 -8 -3 -4 4 4 8 -3 16 -19 22 -14 5 -24 14 -20 20 8 13 34 1 45
-21z m114 -23 c-3 -9 -13 -16 -21 -16 -8 0 -11 -5 -7 -12 4 -7 3 -8 -4 -4 -15
9 -4 36 14 36 8 0 14 5 14 12 0 6 2 9 5 6 3 -3 3 -13 -1 -22z m-189 -44 c-3
-3 -11 0 -18 7 -9 10 -8 11 6 5 10 -3 15 -9 12 -12z m50 -62 c3 -5 1 -18 -4
-27 -10 -17 -10 -17 -11 -1 0 9 -8 22 -17 27 -16 9 -16 10 4 11 12 0 25 -4 28
-10z m45 -15 c10 -12 17 -12 34 -3 19 10 20 9 8 -5 -11 -13 -10 -15 5 -12 10
1 17 7 16 12 -1 5 13 8 30 8 25 -1 33 -5 35 -23 5 -32 -15 -52 -52 -52 -17 0
-44 -2 -61 -3 -16 -2 -36 2 -43 9 -7 7 -19 11 -27 8 -8 -4 -15 -1 -15 4 0 6
10 12 23 14 17 2 21 9 19 31 -3 30 9 35 28 12z m264 -49 c-3 -9 -15 -16 -26
-16 -19 0 -19 1 3 19 27 22 32 21 23 -3z m-4 -36 c0 -5 -7 -10 -15 -10 -8 0
-15 -9 -15 -20 0 -11 6 -20 14 -20 22 0 28 -31 10 -51 -23 -25 -43 -24 -48 4
-3 12 -7 35 -11 50 -3 18 -2 26 4 23 5 -4 12 3 16 14 6 20 45 29 45 10z m30
-32 c0 -16 -3 -19 -11 -11 -6 6 -8 16 -5 22 11 17 16 13 16 -11z m490 -18 c0
-5 -7 -10 -15 -10 -8 0 -15 5 -15 10 0 6 7 10 15 10 8 0 15 -4 15 -10z m-606
-39 c7 -10 -22 -37 -30 -28 -9 8 3 37 15 37 5 0 12 -4 15 -9z m266 -50 c0 -5
-12 -6 -27 -3 -24 5 -25 6 -8 12 21 8 35 4 35 -9z m-15 -101 c-3 -5 -17 -10
-31 -10 -13 0 -24 5 -24 10 0 6 14 10 31 10 17 0 28 -4 24 -10z m371 -55 c17
-16 14 -18 -10 -9 -9 3 -16 10 -16 15 0 13 9 11 26 -6z"/>
<path d="M8748 9953 c7 -3 16 -2 19 1 4 3 -2 6 -13 5 -11 0 -14 -3 -6 -6z"/>
<path d="M8930 9780 c0 -5 5 -10 11 -10 5 0 7 5 4 10 -3 6 -8 10 -11 10 -2 0
-4 -4 -4 -10z"/>
<path d="M9297 9179 c4 -13 8 -18 11 -10 2 7 -1 18 -6 23 -8 8 -9 4 -5 -13z"/>
<path d="M9520 9036 c0 -22 3 -27 11 -19 8 8 8 16 0 30 -9 16 -10 14 -11 -11z"/>
<path d="M8637 10194 c-11 -11 -8 -42 4 -49 16 -10 19 -2 11 29 -4 15 -11 24
-15 20z"/>
<path d="M8640 10126 c0 -2 9 -6 20 -9 11 -3 20 -1 20 4 0 5 -9 9 -20 9 -11 0
-20 -2 -20 -4z"/>
<path d="M5455 10110 c-11 -5 -14 -9 -7 -9 23 -2 27 -3 38 -12 16 -13 26 2 13
18 -13 15 -16 15 -44 3z"/>
<path d="M8645 10060 c3 -5 10 -10 16 -10 5 0 9 5 9 10 0 6 -7 10 -16 10 -8 0
-12 -4 -9 -10z"/>
<path d="M8646 9925 c4 -8 8 -15 10 -15 2 0 4 7 4 15 0 8 -4 15 -10 15 -5 0
-7 -7 -4 -15z"/>
<path d="M5745 9916 c-22 -7 -39 -16 -37 -19 8 -23 -1 -26 -24 -8 -54 43 -124
17 -124 -44 0 -22 -3 -26 -11 -18 -13 13 -35 7 -60 -14 -21 -18 -11 -74 16
-88 11 -5 27 -14 35 -20 17 -11 36 -16 68 -18 12 0 22 -5 22 -9 0 -4 7 -8 15
-8 8 0 15 4 15 9 0 20 66 21 105 1 22 -11 34 -20 27 -20 -7 0 -12 -4 -12 -9 0
-5 13 -4 30 2 24 9 33 9 45 -4 16 -16 79 -14 69 2 -3 5 9 9 25 9 28 0 32 -4
30 -27 -1 -12 45 -21 52 -10 4 5 -12 35 -36 66 -23 31 -50 71 -60 90 -9 19
-21 39 -27 45 -5 6 -18 26 -28 44 -19 31 -52 43 -65 22 -8 -13 -45 -13 -45 0
0 5 15 16 33 24 29 13 30 14 7 14 -14 0 -43 -6 -65 -12z m-188 -120 c-6 -19
-50 -37 -62 -25 -7 7 -3 16 13 29 23 19 56 17 49 -4z"/>
<path d="M3655 9910 c3 -5 8 -10 11 -10 2 0 4 5 4 10 0 6 -5 10 -11 10 -5 0
-7 -4 -4 -10z"/>
<path d="M3625 9890 c-3 -5 -2 -10 4 -10 5 0 13 5 16 10 3 6 2 10 -4 10 -5 0
-13 -4 -16 -10z"/>
<path d="M7380 9824 c-12 -31 3 -55 93 -144 109 -108 117 -112 123 -46 3 39
-38 96 -69 96 -12 0 -33 11 -47 25 -14 13 -39 38 -57 54 -17 16 -29 32 -26 35
4 3 3 6 -1 6 -3 0 -11 -12 -16 -26z"/>
<path d="M8621 9704 c0 -11 3 -14 6 -6 3 7 2 16 -1 19 -3 4 -6 -2 -5 -13z"/>
<path d="M7766 9583 c7 -31 34 -66 34 -45 0 15 -28 72 -35 72 -3 0 -2 -12 1
-27z"/>
<path d="M8830 9560 c0 -5 5 -10 10 -10 6 0 10 5 10 10 0 6 -4 10 -10 10 -5 0
-10 -4 -10 -10z"/>
<path d="M6460 9552 c0 -11 22 -32 33 -32 4 0 5 5 1 11 -4 8 0 8 15 0 17 -9
20 -9 15 3 -7 19 -64 35 -64 18z"/>
<path d="M2945 9530 c-3 -6 1 -7 9 -4 18 7 21 14 7 14 -6 0 -13 -4 -16 -10z"/>
<path d="M6555 9510 c3 -5 8 -10 11 -10 2 0 4 5 4 10 0 6 -5 10 -11 10 -5 0
-7 -4 -4 -10z"/>
<path d="M6580 9512 c0 -7 8 -16 18 -19 9 -4 20 -11 24 -17 5 -7 8 -7 8 2 0 7
-8 16 -17 19 -10 4 -21 11 -25 17 -5 7 -8 7 -8 -2z"/>
<path d="M7811 9503 c-1 -12 4 -25 9 -28 12 -7 12 2 0 30 -8 19 -9 19 -9 -2z"/>
<path d="M4556 9375 c-4 -10 1 -15 14 -15 11 0 20 -3 20 -8 0 -9 68 -47 74
-41 7 6 -16 32 -51 57 -38 26 -49 27 -57 7z"/>
<path d="M8997 9338 c-6 -20 9 -25 16 -5 4 9 6 9 6 -1 1 -7 -6 -24 -15 -37
-18 -27 -13 -58 8 -50 7 3 18 -5 23 -17 6 -13 18 -24 28 -26 17 -3 18 1 11 45
-4 26 -11 49 -15 51 -5 2 -6 15 -3 28 5 20 3 23 -12 17 -11 -4 -15 -3 -10 5 4
7 -1 10 -13 9 -11 0 -22 -9 -24 -19z"/>
<path d="M9080 9340 c0 -8 5 -22 10 -30 9 -13 10 -13 10 0 0 8 -5 22 -10 30
-9 13 -10 13 -10 0z"/>
<path d="M7910 9287 c0 -7 11 -24 24 -36 l24 -22 -7 33 c-7 33 -41 54 -41 25z"/>
<path d="M1357 9249 c-13 -11 -17 -18 -9 -19 9 0 11 -7 7 -21 -6 -18 -4 -20
14 -14 17 5 21 2 21 -15 0 -39 34 -58 68 -37 17 11 15 37 -3 37 -8 0 -15 6
-15 13 0 8 -3 7 -10 -3 -5 -8 -12 -11 -16 -7 -11 11 16 36 32 30 31 -12 2 24
-32 39 -32 15 -36 15 -57 -3z"/>
<path d="M1370 9130 c0 -5 5 -10 10 -10 6 0 10 5 10 10 0 6 -4 10 -10 10 -5 0
-10 -4 -10 -10z"/>
<path d="M1410 9109 c0 -5 5 -7 10 -4 6 3 10 8 10 11 0 2 -4 4 -10 4 -5 0 -10
-5 -10 -11z"/>
<path d="M9173 9093 c9 -9 20 -13 24 -9 4 4 1 11 -7 16 -25 16 -35 11 -17 -7z"/>
<path d="M9204 9065 c-10 -24 0 -32 18 -14 14 15 14 18 2 23 -8 3 -17 -1 -20
-9z"/>
<path d="M9240 9040 c0 -5 7 -10 15 -10 8 0 15 5 15 10 0 6 -7 10 -15 10 -8 0
-15 -4 -15 -10z"/>
<path d="M9206 9011 c-3 -4 6 -6 19 -3 14 2 25 6 25 8 0 8 -39 4 -44 -5z"/>
<path d="M9225 8990 c3 -5 8 -10 11 -10 2 0 4 5 4 10 0 6 -5 10 -11 10 -5 0
-7 -4 -4 -10z"/>
<path d="M9260 8980 c-13 -9 -13 -10 0 -10 13 0 13 -1 0 -10 -8 -5 -10 -10 -5
-10 6 0 17 5 25 10 11 7 11 10 2 10 -7 0 -10 5 -7 10 8 12 4 12 -15 0z"/>
<path d="M9633 8930 c-24 -13 -29 -20 -21 -28 9 -9 8 -12 -2 -12 -11 -1 -11
-3 3 -11 26 -15 51 4 52 40 0 17 1 30 0 30 0 -1 -14 -9 -32 -19z m2 -20 c-3
-5 2 -10 12 -10 15 0 16 -2 3 -10 -22 -14 -29 -12 -25 8 5 23 4 22 11 22 3 0
2 -4 -1 -10z"/>
<path d="M8006 8874 c-9 -8 -13 -21 -9 -27 4 -7 8 -6 11 3 3 8 9 21 15 28 14
17 1 15 -17 -4z"/>
<path d="M9235 8850 c3 -5 8 -10 11 -10 2 0 4 5 4 10 0 6 -5 10 -11 10 -5 0
-7 -4 -4 -10z"/>
<path d="M9725 8810 c-3 -5 1 -10 10 -10 9 0 13 5 10 10 -3 6 -8 10 -10 10 -2
0 -7 -4 -10 -10z"/>
<path d="M7987 8758 c-6 -22 18 -25 38 -4 12 12 11 14 -10 18 -17 4 -25 0 -28
-14z"/>
<path d="M9591 8751 c-7 -5 -10 -14 -6 -20 5 -9 10 -9 21 0 26 22 14 38 -15
20z"/>
<path d="M10058 8673 c7 -3 16 -2 19 1 4 3 -2 6 -13 5 -11 0 -14 -3 -6 -6z"/>
<path d="M10220 8559 c0 -5 5 -7 10 -4 6 3 10 8 10 11 0 2 -4 4 -10 4 -5 0
-10 -5 -10 -11z"/>
<path d="M8511 8338 c8 -29 29 -61 29 -45 0 12 -29 77 -34 77 -2 0 0 -14 5
-32z"/>
<path d="M1552 7989 c2 -7 28 -25 56 -40 48 -25 55 -26 90 -13 20 7 36 18 35
23 -4 17 14 13 21 -4 3 -8 0 -15 -6 -15 -6 0 -9 -3 -5 -6 3 -3 14 -1 24 5 11
6 13 11 5 11 -7 0 -11 4 -7 9 3 6 -2 14 -12 19 -12 7 -21 4 -35 -12 -12 -14
-17 -16 -16 -6 2 8 -4 15 -12 15 -8 0 -17 3 -20 6 -3 4 -31 10 -64 14 -47 6
-58 5 -54 -6z"/>
<path d="M8810 7873 c1 -10 26 -43 33 -43 3 0 0 11 -6 25 -11 23 -27 34 -27
18z"/>
<path d="M95 7369 c-3 -4 2 -6 10 -5 21 3 28 13 10 13 -9 0 -18 -4 -20 -8z"/>
<path d="M5345 7154 l40 -34 -75 30 c-65 27 -83 30 -135 25 -33 -3 -94 -7
-136 -9 -130 -7 -387 -54 -534 -99 -22 -6 -44 -12 -50 -12 -33 -3 -272 -79
-300 -97 -5 -3 -46 -25 -89 -48 -44 -23 -100 -59 -124 -81 -25 -21 -49 -39
-54 -39 -5 0 -43 -28 -84 -62 -41 -35 -92 -76 -112 -91 -20 -16 -50 -41 -67
-57 -16 -15 -44 -37 -62 -47 -30 -18 -97 -79 -171 -157 -44 -45 -81 -125 -94
-200 -6 -34 -17 -65 -24 -69 -8 -4 -14 -13 -14 -19 0 -6 -6 -16 -14 -22 -7 -6
-17 -23 -20 -39 -6 -23 0 -34 41 -75 34 -34 53 -64 66 -104 9 -30 27 -67 40
-81 12 -14 33 -40 47 -58 52 -68 163 -163 245 -209 22 -13 51 -30 65 -39 35
-22 90 -41 120 -41 56 0 176 59 240 118 44 40 127 65 201 59 56 -3 85 -14 201
-72 114 -56 147 -68 201 -72 79 -7 144 14 201 65 72 63 116 77 251 77 131 -1
208 -18 278 -62 72 -46 194 -100 337 -150 192 -68 222 -75 278 -67 101 14 450
214 484 277 12 24 81 53 154 65 33 6 77 16 99 23 45 14 225 12 262 -2 31 -12
98 25 114 62 6 15 21 36 34 47 13 12 29 40 36 64 7 24 16 47 20 51 10 13 -17
120 -46 176 -28 56 -81 138 -96 146 -5 4 -9 13 -9 22 0 33 -126 152 -204 193
-29 15 -186 175 -186 190 0 4 -41 41 -91 81 -50 41 -108 88 -129 105 -21 18
-71 44 -112 60 -40 15 -80 33 -88 39 -8 7 -31 18 -50 25 -19 8 -37 16 -40 19
-28 31 -233 114 -325 133 -27 5 -90 22 -140 38 -96 31 -198 48 -335 55 l-85 4
40 -35z m105 -70 c0 -2 -9 0 -20 6 -11 6 -20 13 -20 16 0 2 9 0 20 -6 11 -6
20 -13 20 -16z m135 -94 c3 -5 1 -10 -4 -10 -6 0 -11 5 -11 10 0 6 2 10 4 10
3 0 8 -4 11 -10z m-1602 -1165 l14 -49 12 52 c7 29 17 55 22 58 13 7 11 -2 -9
-71 -10 -33 -22 -59 -28 -58 -8 1 -21 37 -38 108 -12 50 11 16 27 -40z m197
-55 c11 0 20 -4 20 -10 0 -5 -13 -10 -30 -10 l-30 0 0 63 c0 83 14 97 18 18 3
-53 6 -61 22 -61z m185 55 c10 -36 16 -68 12 -71 -3 -3 -8 4 -12 15 -3 12 -15
21 -25 21 -10 0 -22 -9 -25 -21 -4 -11 -9 -18 -12 -15 -8 8 27 136 37 136 4 0
16 -29 25 -65z m187 48 c23 -20 24 -80 1 -105 -9 -10 -29 -18 -45 -18 -28 0
-28 0 -28 63 0 35 3 67 7 70 12 12 46 7 65 -10z m148 -53 c0 -40 -4 -70 -10
-70 -6 0 -10 30 -10 70 0 40 4 70 10 70 6 0 10 -30 10 -70z m148 14 l15 -49
15 53 c8 28 18 52 23 52 5 0 8 -33 7 -72 -1 -68 -2 -70 -7 -23 l-6 50 -13 -48
c-14 -56 -25 -54 -41 8 -14 56 -23 58 -18 6 2 -22 0 -46 -4 -53 -5 -8 -9 18
-9 60 0 86 15 93 38 16z m189 -51 c-2 -21 -4 -4 -4 37 0 41 2 58 4 38 2 -21 2
-55 0 -75z m181 95 c15 -15 15 -51 0 -66 -9 -9 -9 -18 0 -38 10 -20 10 -25 0
-22 -17 6 -34 61 -19 66 6 2 11 15 11 28 0 17 -6 24 -20 24 -16 0 -20 -8 -23
-62 l-3 -63 -2 73 c-2 69 -1 72 21 72 13 0 28 -5 35 -12z m310 0 c20 -20 14
-33 -7 -14 -16 15 -19 15 -31 1 -14 -17 -11 -23 22 -39 14 -7 24 -22 26 -38 3
-22 -2 -29 -22 -34 -30 -7 -46 1 -46 24 0 13 2 13 14 -3 12 -16 16 -17 30 -6
23 19 20 28 -14 46 -21 11 -30 23 -30 39 0 33 35 47 58 24z m133 -46 c4 -92
49 -98 49 -7 0 30 5 57 10 60 6 4 10 -16 10 -53 0 -67 -15 -88 -55 -78 -24 6
-25 10 -25 73 0 78 8 81 11 5z m247 46 c7 -7 12 -19 12 -27 0 -11 -5 -9 -16 7
-12 18 -19 20 -35 12 -24 -14 -27 -81 -3 -101 14 -11 19 -10 35 10 13 16 19
19 19 8 0 -20 -25 -39 -47 -35 -38 7 -53 87 -22 125 14 16 41 17 57 1z m142
-24 c0 -17 5 -24 20 -24 16 0 20 7 20 31 0 17 4 28 10 24 6 -3 10 -33 10 -65
0 -32 -4 -62 -10 -65 -6 -4 -10 7 -10 24 0 24 -4 31 -20 31 -15 0 -20 -7 -20
-24 0 -14 -4 -28 -10 -31 -6 -4 -10 20 -10 65 0 45 4 69 10 65 6 -3 10 -17 10
-31z m181 6 c14 -38 22 -38 37 2 6 17 14 29 17 26 3 -3 -2 -21 -10 -41 -8 -20
-15 -47 -15 -61 0 -14 -4 -28 -10 -31 -6 -4 -10 5 -10 20 0 14 -7 42 -15 62
-16 37 -19 53 -9 53 3 0 10 -13 15 -30z"/>
<path d="M4330 5830 c0 -11 5 -20 10 -20 6 0 10 9 10 20 0 11 -4 20 -10 20 -5
0 -10 -9 -10 -20z"/>
<path d="M4500 5820 c0 -44 3 -50 20 -50 29 0 47 42 32 75 -7 15 -20 25 -32
25 -17 0 -20 -6 -20 -50z"/>
<path d="M9806 6181 c-3 -5 1 -11 9 -15 8 -3 15 -1 15 4 0 13 -18 22 -24 11z"/>
<path d="M9800 6149 c0 -5 9 -9 20 -9 11 0 20 2 20 4 0 2 -9 6 -20 9 -11 3
-20 1 -20 -4z"/>
<path d="M9780 6111 c0 -15 5 -17 28 -12 l27 5 -25 5 -25 4 25 8 25 7 -27 1
c-21 1 -28 -4 -28 -18z"/>
<path d="M9936 6118 c3 -4 1 -8 -3 -8 -5 0 -7 -18 -5 -40 4 -41 24 -54 36 -24
10 25 -4 81 -19 81 -8 0 -12 -4 -9 -9z"/>
<path d="M9782 5942 c-28 -3 -33 -7 -30 -25 2 -17 11 -23 41 -25 20 -2 37 -7
37 -12 0 -5 -17 -10 -37 -12 -30 -2 -38 -7 -38 -22 0 -11 -6 -21 -13 -24 -17
-5 -15 -39 3 -46 11 -4 15 1 15 18 0 41 9 53 36 48 15 -3 24 -11 24 -23 0 -11
3 -19 8 -20 4 0 17 -2 30 -5 17 -3 22 1 22 17 0 18 -2 19 -15 9 -12 -10 -15
-10 -15 3 0 8 7 17 15 21 8 3 15 12 15 21 0 8 6 24 12 35 23 36 -16 51 -110
42z"/>
<path d="M9818 5703 c7 -3 16 -2 19 1 4 3 -2 6 -13 5 -11 0 -14 -3 -6 -6z"/>
<path d="M9830 5660 c0 -11 4 -20 9 -20 6 0 9 9 8 20 -1 11 -5 20 -9 20 -4 0
-8 -9 -8 -20z"/>
<path d="M3276 5470 c-62 -19 -115 -99 -116 -175 0 -92 57 -153 179 -192 76
-25 121 -69 121 -119 0 -118 -142 -167 -201 -70 -10 17 -19 41 -19 54 0 19 -5
22 -45 22 -25 0 -45 -4 -45 -8 0 -33 35 -113 60 -139 68 -69 209 -66 281 6 57
57 71 157 33 233 -20 38 -68 71 -151 102 -93 35 -127 72 -120 130 3 23 16 49
31 65 50 50 143 24 160 -45 5 -20 12 -24 47 -24 41 0 41 0 35 31 -21 107 -132
164 -250 129z"/>
<path d="M6715 5465 c-51 -18 -100 -73 -114 -130 -18 -71 -16 -75 33 -75 43 0
44 1 50 39 14 88 107 122 168 61 28 -29 30 -35 26 -88 -5 -71 -21 -95 -173
-264 -114 -125 -117 -129 -110 -166 l6 -37 184 0 185 0 0 38 0 37 -136 0 -136
0 107 112 c126 134 165 202 165 287 -1 95 -41 159 -117 187 -48 17 -88 17
-138 -1z"/>
<path d="M7668 5470 c-15 -4 -40 -17 -56 -29 -80 -56 -84 -199 -7 -255 17 -12
16 -14 -15 -36 -59 -42 -84 -134 -60 -222 13 -47 73 -113 95 -104 9 3 13 2 10
-4 -5 -8 4 -12 69 -25 66 -14 168 41 203 109 26 49 23 142 -7 194 -13 23 -26
42 -29 42 -3 0 -14 7 -25 15 -18 14 -18 16 12 49 112 127 -24 316 -190 266z
m86 -80 c30 -11 56 -57 56 -99 0 -42 -44 -91 -82 -91 -43 0 -68 17 -84 57 -19
43 -5 93 33 123 29 23 41 24 77 10z m26 -286 c78 -47 78 -179 -1 -219 -49 -26
-97 -19 -135 19 -31 31 -34 40 -34 91 0 51 3 60 34 91 39 39 89 45 136 18z"/>
<path d="M9517 5465 c-81 -28 -128 -105 -129 -208 -1 -142 87 -233 206 -214
l34 5 -78 -114 c-43 -62 -81 -117 -84 -122 -2 -4 15 -7 39 -7 l42 0 88 125
c112 159 144 221 152 291 18 175 -119 298 -270 244z m136 -89 c59 -55 57 -189
-4 -241 -40 -33 -88 -33 -127 0 -59 49 -61 178 -5 238 36 36 98 38 136 3z"/>
<path d="M480 5138 l0 -333 40 0 40 0 0 128 0 127 58 0 c74 0 124 14 163 47
90 76 91 239 1 315 -39 33 -108 48 -217 48 l-85 0 0 -332z m236 227 c31 -20
44 -53 44 -112 0 -38 -5 -50 -34 -79 -31 -31 -39 -34 -94 -34 -34 0 -63 4 -66
9 -3 4 -3 61 1 126 l6 117 59 -5 c32 -3 70 -13 84 -22z"/>
<path d="M1384 5193 c7 -300 12 -324 66 -363 67 -48 202 -48 269 0 56 39 59
60 63 360 l3 275 -42 3 -43 3 0 -261 c0 -326 -5 -340 -119 -340 -38 0 -56 6
-78 24 l-28 24 -3 276 -3 276 -46 0 -46 0 7 -277z"/>
<path d="M2360 5138 l0 -333 140 0 140 0 0 38 0 37 -101 0 -102 0 4 293 4 292
-42 3 -43 3 0 -333z"/>
<path d="M4216 5453 c-9 -31 -176 -643 -176 -646 0 -1 18 -2 40 -2 27 0 42 5
44 15 3 8 14 48 26 88 l21 72 94 0 95 0 26 -87 26 -88 39 0 c21 0 39 2 39 5 0
2 -41 152 -92 332 l-91 328 -43 0 c-32 0 -44 -4 -48 -17z m87 -256 l35 -137
-73 0 -73 0 36 140 c19 78 36 139 38 138 1 -2 18 -65 37 -141z"/>
<path d="M5010 5137 l0 -336 38 2 39 1 6 186 c4 102 7 234 7 294 l0 109 60 -6
c34 -4 70 -11 80 -17 68 -36 66 -194 -3 -232 -12 -6 -38 -14 -58 -17 l-36 -6
72 -154 71 -153 46 -3 45 -2 -32 71 c-18 40 -46 99 -63 133 l-31 61 30 12 c37
16 74 59 89 106 19 58 9 155 -22 201 -39 60 -82 75 -220 81 l-118 5 0 -336z"/>
<path d="M8672 5418 c-145 -257 -222 -410 -222 -442 l0 -35 128 -3 127 -3 5
-65 c5 -64 5 -65 35 -65 30 0 30 1 35 65 5 62 6 65 33 68 23 3 27 8 27 37 0
29 -4 34 -26 37 l-26 3 1 228 2 227 -45 0 c-43 0 -45 -1 -74 -52z m37 -248 l3
-160 -91 0 c-50 0 -91 2 -91 6 0 9 165 314 170 314 3 0 7 -72 9 -160z"/>
<path d="M5730 4851 c-45 -12 -134 -60 -185 -101 -102 -82 -116 -85 -335 -85
-208 0 -254 8 -322 58 -21 15 -44 21 -90 21 -58 1 -70 -3 -143 -46 -90 -52
-196 -93 -267 -103 -51 -7 -68 -24 -68 -68 0 -22 103 -151 157 -197 89 -76
289 -140 438 -140 104 0 335 71 335 102 0 10 79 49 145 73 28 10 69 26 92 36
24 11 47 19 53 19 19 0 112 51 135 74 13 13 30 26 39 29 24 9 85 98 92 135 3
18 10 35 14 37 14 9 41 115 35 135 -9 28 -64 37 -125 21z"/>
<path d="M9609 4598 c-15 -5 -30 -19 -34 -31 -7 -21 -8 -21 -12 -2 -3 19 -12
20 -137 20 -146 0 -158 -4 -183 -62 -16 -40 -16 -43 1 -43 26 0 28 -20 2 -29
-30 -12 -31 -16 -51 -176 -9 -71 -20 -152 -25 -180 -5 -27 -19 -111 -31 -185
-74 -483 -272 -1313 -434 -1825 -120 -377 -180 -551 -234 -670 -37 -81 -51
-114 -114 -261 -36 -82 -76 -171 -91 -198 -14 -27 -26 -55 -26 -63 0 -7 -22
-62 -49 -122 -47 -106 -48 -108 -23 -102 32 9 92 130 64 132 -11 0 -12 3 -4 6
6 2 12 11 12 19 0 8 7 14 15 14 13 0 33 33 39 65 1 6 5 15 9 22 4 6 1 13 -5
16 -22 7 -2 18 44 24 24 3 48 12 55 20 11 14 23 13 109 -3 l97 -19 32 -85 c18
-47 28 -87 23 -88 -19 -8 -57 9 -63 27 -3 12 -19 22 -38 26 -81 17 -105 26
-103 40 3 24 13 27 37 14 40 -21 89 -29 89 -14 0 43 -18 61 -76 73 -62 13 -74
8 -74 -31 0 -16 -5 -17 -31 -12 -22 5 -29 4 -25 -4 4 -6 16 -11 27 -11 13 0
19 -7 19 -21 0 -19 -4 -20 -34 -15 -24 5 -35 3 -39 -8 -4 -9 0 -12 11 -9 29 7
56 -20 48 -50 -6 -24 -11 -27 -42 -24 -30 2 -35 5 -31 23 2 14 -1 20 -12 19
-24 -2 -42 -15 -35 -26 3 -6 12 -5 22 3 14 12 15 9 9 -22 -4 -22 -4 -30 2 -21
6 10 16 11 37 4 24 -8 29 -15 29 -44 0 -31 -3 -34 -32 -37 -32 -3 -33 -4 -33
-52 0 -47 13 -73 23 -48 4 8 6 7 6 -4 1 -18 35 -33 64 -29 9 1 17 -2 17 -7 0
-6 7 -13 16 -16 8 -3 12 -2 9 4 -4 6 2 7 17 1 13 -5 27 -9 33 -9 5 0 11 -6 13
-12 3 -7 -5 -9 -21 -5 -21 6 -25 2 -30 -21 -3 -20 2 -33 19 -51 13 -12 20 -23
17 -23 -4 0 -2 -5 5 -12 24 -24 13 -57 -30 -89 -38 -27 -49 -30 -91 -25 -60 7
-67 11 -67 45 0 16 -6 34 -14 40 -13 11 -28 51 -25 67 0 4 -3 10 -9 13 -5 3
-12 19 -16 35 -6 23 -4 27 8 23 9 -4 22 3 31 16 8 12 18 21 20 20 3 -2 8 -3
13 -3 4 0 -4 6 -18 13 -17 9 -24 20 -22 35 2 17 -2 22 -17 22 -12 0 -21 -4
-21 -10 0 -14 -27 -12 -33 3 -4 9 -8 8 -16 -3 -8 -12 -13 -12 -19 -3 -4 7 -18
11 -31 8 -22 -4 -23 -3 -7 14 15 16 15 19 2 24 -10 4 -13 1 -10 -7 3 -7 -2
-16 -10 -19 -9 -4 -26 -28 -39 -54 -44 -91 -120 -228 -138 -248 -9 -11 -28
-41 -42 -67 -23 -44 -37 -52 -37 -22 0 7 25 63 55 126 30 62 55 121 55 130 0
25 -49 36 -65 14 -11 -15 -14 -15 -25 0 -11 12 -24 14 -64 8 -28 -4 -58 -7
-66 -8 -8 0 -30 -12 -48 -25 -20 -13 -41 -21 -53 -18 -11 3 -30 0 -43 -7 -23
-11 -23 -12 -5 -45 16 -29 15 -73 -2 -68 -11 4 -39 -25 -33 -34 3 -5 18 -7 35
-4 16 3 29 1 29 -4 0 -13 61 -36 91 -33 28 3 52 -18 47 -42 -2 -9 8 -22 22
-29 14 -8 24 -19 23 -25 -2 -6 4 -9 12 -6 21 8 19 -2 -8 -39 -13 -18 -34 -49
-46 -69 l-23 -38 1241 0 1241 0 0 928 c0 510 -4 922 -8 915 -10 -16 -109 -83
-122 -83 -6 0 -8 -4 -5 -10 3 -5 -2 -10 -12 -10 -11 0 -24 -5 -30 -11 -5 -5
-34 -12 -62 -14 -60 -5 -74 -12 -67 -30 3 -8 -1 -18 -7 -24 -18 -14 -66 -21
-72 -10 -4 5 -14 5 -26 -1 -11 -6 -17 -15 -14 -19 3 -5 -15 -18 -40 -30 -25
-12 -45 -28 -45 -36 0 -8 -4 -15 -9 -15 -13 0 -44 -108 -37 -127 3 -8 2 -12
-3 -9 -12 8 -27 -13 -35 -49 -4 -16 -11 -32 -14 -35 -25 -19 -55 -63 -56 -82
-1 -17 -9 -24 -36 -31 -28 -6 -40 -17 -58 -50 -12 -23 -22 -48 -22 -55 0 -29
-47 -102 -72 -113 -16 -6 -28 -15 -28 -19 0 -11 -82 -40 -113 -40 -32 0 -35
-10 -6 -28 15 -10 20 -21 16 -39 -3 -15 1 -27 10 -30 26 -10 -20 -32 -68 -33
-39 0 -49 -4 -69 -30 -19 -25 -29 -30 -51 -25 -21 5 -27 2 -32 -14 -6 -26 -33
-27 -46 -3 -5 9 -9 19 -9 22 -2 17 -15 39 -22 35 -4 -3 -14 3 -21 12 -13 15
-11 16 10 10 40 -10 9 9 -44 28 -27 9 -57 20 -65 23 -8 3 -18 6 -22 6 -5 1 -8
5 -7 10 1 15 -55 46 -73 40 -10 -3 -18 0 -18 6 0 6 -11 8 -25 6 -15 -3 -23 -1
-20 5 4 5 11 6 17 3 6 -4 8 -3 5 3 -7 11 -36 11 -54 0 -6 -4 -2 12 9 35 191
393 497 1220 642 1738 94 334 217 865 265 1152 50 290 94 719 75 730 -5 3 -21
1 -35 -4z m281 -3172 c0 -8 -4 -17 -9 -21 -12 -7 -24 12 -16 25 9 15 25 12 25
-4z m-1346 -497 c6 -5 -6 -8 -27 -7 -21 1 -42 7 -48 15 -10 11 -5 12 27 7 22
-3 43 -10 48 -15z m191 -77 c-3 -3 -11 0 -18 7 -9 10 -8 11 6 5 10 -3 15 -9
12 -12z m-225 -46 c126 -22 190 -53 190 -93 0 -22 -60 -9 -80 17 -9 12 -43 25
-90 36 -68 15 -114 34 -81 34 7 0 9 5 5 11 -4 7 0 9 12 5 11 -3 30 -7 44 -10z
m295 -65 c10 -17 -9 -20 -30 -5 -18 14 -18 14 2 14 12 0 24 -4 28 -9z m-255
-41 c6 -11 9 -21 8 -21 -2 -1 -15 -3 -30 -5 -33 -3 -37 12 -7 21 17 6 19 9 8
16 -10 6 -10 9 -2 9 7 0 17 -9 23 -20z m0 -61 c105 -32 69 -30 -52 2 -43 12
-78 26 -78 31 0 6 8 7 18 3 9 -4 60 -21 112 -36z m184 -27 c17 -48 15 -61 -6
-45 -19 15 -60 23 -72 15 -6 -5 -60 6 -121 24 -130 38 -121 44 15 9 52 -13 96
-22 98 -20 2 2 -1 19 -6 38 -6 20 -8 38 -6 40 3 3 22 0 44 -5 34 -9 41 -16 54
-56z m-380 -7 c-4 -8 -10 -13 -15 -10 -4 3 -6 12 -3 20 4 8 10 13 15 10 4 -3
6 -12 3 -20z m-164 -47 c0 -7 -4 -7 -12 0 -7 6 -17 10 -21 10 -5 0 -12 4 -15
8 -4 4 -1 4 6 0 7 -4 12 -2 12 5 0 8 4 8 15 -1 8 -7 15 -17 15 -22z m277 -4
c2 -6 -3 -11 -10 -11 -8 0 -14 6 -14 14 0 15 19 12 24 -3z m-217 -4 c13 -9 13
-10 0 -10 -8 0 -22 5 -30 10 -13 9 -13 10 0 10 8 0 22 -5 30 -10z m647 -6 c24
-9 43 -21 43 -25 0 -5 -2 -9 -4 -9 -8 0 -96 41 -96 45 0 8 13 6 57 -11z m521
-32 c2 -13 -2 -22 -10 -22 -20 0 -37 20 -31 37 8 21 38 11 41 -15z m-814 -24
c-3 -4 -9 -8 -15 -8 -5 0 -9 4 -9 8 0 5 7 9 15 9 8 0 12 -4 9 -9z m0 -37 c4
-5 -3 -7 -14 -4 -23 6 -26 13 -6 13 8 0 17 -4 20 -9z m225 -62 c18 -11 38 -33
44 -49 6 -17 15 -30 20 -30 5 0 -6 -16 -24 -35 -44 -47 -92 -48 -138 -5 l-31
30 -1 -27 c-1 -16 -1 -31 0 -36 3 -18 -39 20 -44 41 -7 30 1 42 28 42 16 0 18
3 8 9 -11 7 -9 13 10 32 51 52 79 58 128 28z m1251 -104 c0 -8 -7 -15 -15 -15
-8 0 -15 7 -15 15 0 8 7 15 15 15 8 0 15 -7 15 -15z m-1510 -15 c0 -5 -4 -10
-10 -10 -5 0 -10 5 -10 10 0 6 5 10 10 10 6 0 10 -4 10 -10z m353 -25 c-3 -9
-8 -14 -10 -11 -3 3 -2 9 2 15 9 16 15 13 8 -4z m-343 -23 c0 -15 -2 -15 -10
-2 -13 20 -13 33 0 25 6 -3 10 -14 10 -23z m240 -33 l35 -7 -37 -1 c-43 -1
-70 7 -62 20 3 5 11 6 17 2 6 -4 27 -10 47 -14z"/>
<path d="M8478 793 c7 -3 16 -2 19 1 4 3 -2 6 -13 5 -11 0 -14 -3 -6 -6z"/>
<path d="M8555 775 c27 -8 51 -12 53 -10 5 5 -69 25 -88 24 -8 0 7 -7 35 -14z"/>
<path d="M143 3473 c-21 -7 -15 -33 7 -33 33 0 23 -26 -11 -28 -25 -2 -30 1
-25 13 4 10 -1 15 -14 15 -12 0 -20 -7 -21 -17 -1 -10 -2 -22 -3 -28 -12 -55
-20 -75 -30 -75 -6 0 -3 -5 6 -10 9 -6 19 -23 23 -39 15 -70 51 -123 152 -227
40 -40 73 -80 73 -88 0 -8 6 -16 14 -19 8 -3 16 -16 18 -29 4 -28 58 -65 107
-74 21 -4 53 -22 78 -45 26 -24 52 -39 68 -39 15 0 25 -6 25 -14 0 -7 6 -19
14 -26 8 -6 12 -18 9 -26 -3 -8 1 -14 8 -14 7 0 10 -3 6 -6 -3 -3 5 -16 19
-29 13 -12 24 -27 24 -34 0 -12 -8 -13 -80 -17 -25 -1 -64 -4 -87 -8 -49 -7
-62 5 -70 64 -6 43 -34 73 -59 63 -8 -3 -14 0 -14 7 0 7 -8 9 -22 5 -18 -5
-20 -4 -8 4 23 16 -18 51 -69 58 -25 4 -41 11 -41 19 0 8 -8 14 -17 14 -9 0
-25 8 -36 18 -18 16 -107 26 -107 11 0 -12 -44 -19 -54 -9 -6 6 -14 10 -18 10
-4 0 -8 -639 -8 -1420 l0 -1420 1110 0 c610 0 1110 3 1110 6 0 3 -22 65 -49
137 -66 179 -203 603 -231 717 -47 190 -115 498 -154 708 -18 95 -36 175 -39
179 -4 3 -38 -8 -77 -26 -76 -34 -80 -35 -80 -23 0 4 20 18 45 32 28 15 45 31
45 43 0 18 -7 18 -60 -1 -13 -5 -13 -3 -1 11 12 15 12 17 -1 12 -8 -3 -27 -1
-41 4 -15 6 -27 7 -27 2 0 -4 -7 -8 -15 -8 -8 0 -11 5 -8 10 4 6 -5 7 -23 3
-39 -10 -30 -3 44 34 34 17 62 35 62 40 0 6 9 10 20 10 20 0 38 25 27 36 -3 3
-40 -4 -81 -15 -42 -12 -100 -21 -128 -21 -51 0 -52 1 -30 16 13 9 51 27 85
41 67 27 100 50 94 67 -2 6 5 17 17 24 13 9 15 11 4 8 -12 -3 -15 -1 -11 9 3
8 9 13 13 10 4 -3 11 2 14 11 8 22 8 26 -4 19 -6 -3 -10 -2 -10 4 0 17 -26 1
-40 -25 -16 -29 -30 -31 -30 -4 0 11 5 20 11 20 5 0 7 5 3 12 -4 6 -3 8 4 5
17 -11 41 3 39 24 -1 13 -6 18 -17 13 -34 -13 -80 -16 -80 -5 0 6 7 11 15 11
9 0 18 7 22 16 4 11 14 14 34 10 33 -6 40 2 25 29 -12 21 -36 31 -36 15 0 -5
-9 -10 -20 -10 -21 0 -29 33 -10 45 6 4 8 11 5 16 -4 5 0 9 7 9 10 0 9 3 -2
10 -9 6 -17 5 -22 -3 -6 -9 -11 -7 -19 6 -5 9 -28 26 -50 36 -39 19 -39 19
-53 0 -17 -25 -89 -40 -81 -17 4 9 17 20 31 27 26 11 25 31 -2 31 -8 0 -14 4
-14 10 0 5 -7 7 -15 3 -10 -3 -15 -1 -13 7 3 14 -75 21 -95 8 -9 -6 -9 -8 1
-8 7 0 10 -5 6 -12 -4 -6 0 -16 8 -22 8 -6 19 -24 25 -41 6 -18 17 -29 27 -29
20 2 21 -25 1 -32 -11 -5 -12 -10 -6 -18 8 -9 2 -12 -20 -10 -18 1 -32 -3 -36
-12 -3 -8 -11 -14 -19 -14 -8 0 -14 -4 -14 -9 0 -5 -12 -6 -27 -2 -19 5 -28
14 -27 27 0 16 -7 19 -45 19 -29 0 -46 5 -49 14 -3 8 0 11 7 7 6 -4 11 -2 11
3 0 6 -7 11 -15 11 -9 0 -15 9 -15 24 0 14 -4 28 -10 31 -5 3 -10 15 -10 25 0
10 -5 22 -10 25 -6 4 -10 3 -9 -2 4 -22 -3 -31 -28 -36 -50 -9 -71 16 -36 44
9 8 14 9 10 2 -5 -7 0 -9 13 -6 11 3 20 10 20 15 0 5 -5 6 -10 3 -6 -3 -10 -2
-10 4 0 18 19 22 28 5 9 -15 10 -15 16 4 7 20 14 22 84 22 66 0 73 2 57 13
-14 11 -16 21 -11 49 8 46 -4 77 -51 126 -21 22 -37 46 -35 52 9 27 -30 50
-85 50 -34 0 -52 4 -48 10 4 7 -7 8 -33 4 -34 -5 -40 -3 -45 15 -3 13 -13 21
-26 21 -12 0 -22 5 -22 10 -1 6 -2 14 -3 19 -2 15 -50 49 -79 56 -14 4 -32 14
-39 22 -17 21 -38 83 -27 83 5 0 9 13 9 28 0 39 16 53 46 40 13 -6 27 -8 30
-5 13 13 -6 34 -35 40 -17 4 -34 15 -37 24 -3 10 -10 27 -14 38 -5 11 -10 29
-12 40 -5 28 -38 43 -143 61 -41 8 -47 15 -49 66 -1 31 -5 43 -16 43 -26 0
-80 27 -79 39 4 30 -1 40 -13 28 -18 -18 -46 -14 -53 8 -7 23 -21 26 -29 8 -3
-7 -3 2 0 19 5 32 4 32 -29 31 -18 -1 -38 1 -43 4 -5 3 -15 3 -21 1z m367
-424 c0 -5 -7 -9 -15 -9 -15 0 -20 12 -9 23 8 8 24 -1 24 -14z m-195 -426 c-2
-7 -1 -12 3 -12 38 6 33 -47 -6 -62 -24 -9 -61 -4 -63 9 -5 44 -3 59 7 55 7
-2 15 1 20 8 4 8 3 10 -4 5 -7 -4 -12 -3 -12 2 0 5 14 9 30 8 20 -1 29 -5 25
-13z m789 -118 c-10 -8 -23 -13 -27 -12 -12 4 -4 22 10 22 6 0 15 4 19 8 4 4
10 5 12 2 3 -3 -3 -12 -14 -20z m-687 -139 c-4 -11 -73 -14 -83 -3 -14 14 8
22 46 19 25 -3 39 -9 37 -16z m-307 4 c0 -5 -9 -10 -19 -10 -11 0 -23 5 -26
10 -4 6 5 10 19 10 14 0 26 -4 26 -10z m116 -5 c19 -16 5 -25 -21 -13 -13 6
-22 15 -19 19 6 10 24 8 40 -6z m459 0 c0 -5 -17 -11 -37 -13 -38 -3 -53 12
-20 21 26 8 57 3 57 -8z m-115 -10 c0 -17 -2 -18 -24 -9 -23 9 -20 24 4 24 11
0 20 -7 20 -15z m320 5 c0 -5 -4 -10 -10 -10 -5 0 -10 5 -10 10 0 6 5 10 10
10 6 0 10 -4 10 -10z m-415 -10 c-3 -5 -10 -10 -16 -10 -5 0 -9 5 -9 10 0 6 7
10 16 10 8 0 12 -4 9 -10z m290 0 c3 -5 -1 -10 -9 -10 -9 0 -16 5 -16 10 0 6
4 10 9 10 6 0 13 -4 16 -10z m737 -62 c9 -26 -8 -63 -30 -66 -22 -3 -30 12
-12 23 6 3 10 17 10 31 0 25 24 34 32 12z m-92 -18 c0 -5 -2 -10 -4 -10 -3 0
-8 5 -11 10 -3 6 -1 10 4 10 6 0 11 -4 11 -10z m-1380 -4 c0 -3 -4 -8 -10 -11
-5 -3 -10 -1 -10 4 0 6 5 11 10 11 6 0 10 -2 10 -4z m1392 -42 c15 -10 8 -33
-13 -39 -11 -4 -23 -4 -26 -1 -4 3 -17 -1 -31 -10 -13 -9 -21 -11 -18 -5 4 6
0 11 -8 11 -19 0 -21 31 -3 49 11 12 77 9 99 -5z m-372 -29 c0 -8 -7 -15 -15
-15 -8 0 -15 7 -15 15 0 8 7 15 15 15 8 0 15 -7 15 -15z m-73 -2 c-11 -11 13
-32 30 -26 10 4 14 2 11 -7 -2 -7 -14 -14 -26 -15 -12 -1 -31 -10 -42 -20 -18
-16 -23 -17 -30 -5 -21 33 -7 62 35 73 11 2 22 5 24 6 2 0 1 -2 -2 -6z m33
-108 c0 -8 -7 -15 -15 -15 -8 0 -15 7 -15 15 0 8 7 15 15 15 8 0 15 -7 15 -15z
m-342 -1 c29 -8 28 -18 -5 -35 -16 -8 -31 -18 -35 -24 -5 -6 -8 -6 -8 1 0 6
-10 9 -24 7 -48 -10 -41 27 9 45 38 13 36 13 63 6z m52 -14 c0 -5 -5 -10 -11
-10 -5 0 -7 5 -4 10 3 6 8 10 11 10 2 0 4 -4 4 -10z m60 -14 c0 -3 -4 -8 -10
-11 -5 -3 -10 -1 -10 4 0 6 5 11 10 11 6 0 10 -2 10 -4z m-72 -34 c2 -7 -2
-10 -12 -6 -9 3 -16 11 -16 16 0 13 23 5 28 -10z m-338 -37 c-14 -17 -35 -21
-25 -5 3 6 -1 7 -9 4 -9 -3 -16 -1 -16 5 0 6 14 11 31 11 27 0 30 -2 19 -15z
m80 5 c0 -5 -5 -10 -11 -10 -5 0 -7 5 -4 10 3 6 8 10 11 10 2 0 4 -4 4 -10z
m-190 -33 c0 -14 -19 -37 -31 -37 -4 0 -2 11 4 25 13 27 27 33 27 12z m550 -7
c0 -5 -4 -10 -10 -10 -5 0 -10 5 -10 10 0 6 5 10 10 10 6 0 10 -4 10 -10z
m-666 -16 c4 -10 1 -14 -6 -12 -15 5 -23 28 -10 28 5 0 13 -7 16 -16z m-18
-35 c11 -19 -19 -38 -69 -43 -53 -5 -59 3 -21 33 29 23 79 28 90 10z m284
-179 c0 -5 -4 -10 -10 -10 -5 0 -10 5 -10 10 0 6 5 10 10 10 6 0 10 -4 10 -10z
m80 -499 c0 -12 -20 -25 -27 -18 -7 7 6 27 18 27 5 0 9 -4 9 -9z m138 -49 c2
-7 -3 -12 -12 -12 -9 0 -16 7 -16 16 0 17 22 14 28 -4z m22 -142 c0 -5 -5 -10
-11 -10 -5 0 -7 5 -4 10 3 6 8 10 11 10 2 0 4 -4 4 -10z m380 -224 c0 -3 -4
-8 -10 -11 -5 -3 -10 -1 -10 4 0 6 5 11 10 11 6 0 10 -2 10 -4z"/>
<path d="M3505 2370 c3 -5 8 -10 11 -10 2 0 4 5 4 10 0 6 -5 10 -11 10 -5 0
-7 -4 -4 -10z"/>
<path d="M7798 2108 c-3 -7 -13 -13 -23 -13 -13 0 -21 -11 -27 -33 -8 -29 -11
-32 -36 -26 -29 7 -30 7 -52 5 -12 -1 -12 -4 3 -12 24 -14 22 -33 -2 -19 -11
5 -29 10 -41 10 -14 0 -20 5 -18 18 3 19 -20 21 -79 7 -28 -6 -30 -9 -18 -22
8 -8 15 -30 15 -49 0 -42 37 -84 74 -84 27 0 62 31 76 66 7 18 16 22 52 20 51
-3 94 10 102 30 5 14 -12 114 -19 114 -2 0 -5 -6 -7 -12z"/>
<path d="M7715 1940 c3 -5 11 -10 16 -10 6 0 7 5 4 10 -3 6 -11 10 -16 10 -6
0 -7 -4 -4 -10z"/>
<path d="M3454 1632 c-13 -8 -1 -52 15 -52 10 0 21 24 21 46 0 15 -18 18 -36
6z"/>
<path d="M6140 1615 c-19 -21 -30 -24 -55 -20 -20 4 -25 3 -17 -3 11 -7 7 -14
-14 -31 -28 -22 -44 -23 -120 -5 -13 4 -23 0 -27 -9 -4 -11 4 -17 29 -21 19
-4 34 -10 34 -14 0 -4 -15 -17 -34 -30 -30 -20 -41 -22 -98 -16 -51 5 -66 3
-77 -9 -11 -14 -8 -18 23 -31 35 -15 50 -43 22 -43 -8 0 -37 -14 -65 -33 -51
-32 -53 -32 -129 -26 -60 5 -84 4 -106 -8 l-29 -15 61 -18 c34 -10 62 -21 62
-25 0 -4 -34 -30 -76 -58 l-75 -51 -96 12 c-101 12 -112 9 -113 -33 0 -10 -6
-18 -13 -18 -7 0 -59 -39 -115 -87 -56 -49 -156 -133 -223 -188 -66 -55 -124
-109 -129 -120 -8 -22 10 -165 33 -250 l13 -50 60 -1 c63 -2 116 -22 133 -51
7 -12 10 -13 11 -4 0 7 6 11 14 8 7 -3 23 1 35 9 24 17 29 3 6 -16 -9 -7 -14
-19 -11 -27 3 -7 0 -13 -6 -13 -16 0 -5 -177 14 -220 9 -19 20 -48 25 -65 l8
-30 415 -1 c228 -1 394 2 368 5 -45 7 -57 14 -121 74 l-30 27 32 0 c17 0 31 4
31 8 0 4 14 13 30 19 19 7 30 8 30 1 0 -5 7 -2 16 6 21 22 59 20 111 -5 32
-16 45 -29 51 -52 9 -33 -4 -51 -53 -73 -16 -7 -8 -9 32 -12 51 -3 54 -1 127
58 41 34 77 68 80 75 2 7 36 30 75 51 l70 39 11 70 c20 120 57 161 140 158 49
-2 49 -2 59 34 8 27 6 45 -5 77 -27 72 -34 129 -17 148 13 14 12 17 -4 22 -10
3 -1 3 20 0 31 -4 52 2 102 28 37 19 66 41 70 53 6 20 6 20 15 0 7 -17 9 -17
9 -2 1 9 8 17 17 17 8 0 12 5 9 10 -3 6 -16 10 -28 10 -12 0 -51 11 -87 24
-51 19 -64 28 -62 43 11 64 15 74 28 69 7 -3 15 0 18 7 8 21 27 -15 23 -45 -2
-15 2 -29 9 -32 15 -6 28 53 14 68 -5 7 -12 31 -16 54 -7 44 -7 44 47 56 14 3
44 19 67 36 36 26 41 33 32 50 -5 10 -20 20 -32 22 -17 2 -27 16 -41 52 -20
56 -14 66 39 66 25 0 85 29 62 30 -4 0 -3 11 2 24 10 26 -2 36 -43 36 -34 0
-48 14 -53 51 -9 58 -26 82 -64 92 -19 5 -39 13 -44 18 -16 15 -21 11 -40 -36
-11 -25 -23 -45 -28 -45 -4 0 -7 -3 -6 -7 6 -24 -15 -53 -40 -54 -17 -1 -21
-3 -9 -6 22 -6 22 -20 -3 -71 -22 -45 -26 -47 -80 -33 -19 5 -47 12 -61 15
-34 7 -45 34 -22 51 10 8 16 15 13 18 -3 2 -84 19 -180 36 -96 18 -179 36
-184 42 -6 6 -4 9 7 9 9 0 17 4 17 8 0 10 71 42 95 42 10 0 24 -8 31 -17 13
-17 13 -17 14 -1 0 18 31 21 46 5 10 -10 76 -8 93 2 14 9 4 11 -111 26 -27 3
-48 9 -48 11 0 15 31 33 61 36 l34 3 -32 18 c-43 23 -55 22 -83 -8z m-114
-166 c9 -15 -14 -28 -39 -21 -19 5 -19 6 -2 19 23 16 32 16 41 2z m99 -60 c-8
-23 28 -46 80 -52 58 -7 95 -18 95 -28 0 -12 -2 -12 -204 25 -104 18 -181 37
-184 44 -2 7 3 12 12 12 9 0 16 4 16 9 0 5 11 9 25 9 19 0 23 -3 15 -13 -20
-25 14 -23 47 1 50 38 76 45 91 26 6 -9 10 -24 7 -33z m720 2 c6 -10 -25 -31
-44 -31 -6 0 -11 9 -11 20 0 15 7 20 24 20 14 0 27 -4 31 -9z m-893 -52 c24
-6 108 -23 188 -39 133 -25 147 -26 163 -12 16 14 27 14 95 3 87 -15 92 -17
92 -37 0 -23 -39 -94 -51 -94 -7 0 -51 9 -100 21 -84 20 -102 30 -79 44 6 3
10 12 10 19 0 9 -42 20 -132 35 -178 30 -270 49 -299 60 -21 8 -17 10 23 10
26 1 67 -4 90 -10z m-127 -88 c-13 -12 -19 -13 -22 -3 -3 9 -12 7 -33 -8 -29
-21 -47 -13 -36 15 4 10 20 14 56 14 48 -2 50 -3 35 -18z m163 3 c92 -7 110
-19 30 -19 -29 0 -53 -4 -54 -10 0 -5 7 -9 18 -7 10 2 18 0 19 -5 0 -4 2 -19
4 -33 3 -22 -2 -27 -36 -38 -48 -15 -79 -15 -79 -1 0 8 -4 8 -12 1 -7 -6 -16
-11 -20 -11 -38 -6 -45 -41 -8 -41 10 0 74 -13 143 -30 69 -16 128 -30 131
-30 3 0 22 25 42 55 29 44 41 54 58 50 11 -3 54 -12 95 -20 40 -8 77 -17 81
-20 5 -3 -6 -40 -24 -82 -30 -73 -34 -78 -61 -76 -16 1 -31 6 -34 11 -11 17
-46 30 -99 37 -28 4 -55 12 -60 19 -4 7 -108 33 -232 59 -290 61 -326 70 -322
82 2 6 10 9 18 7 8 -2 31 11 50 27 19 17 38 31 42 31 11 0 37 -19 32 -23 -3
-2 -18 -13 -34 -25 -18 -14 -23 -22 -13 -22 8 0 17 -5 19 -11 2 -7 11 -7 28 0
14 5 21 10 16 10 -5 1 3 10 17 22 21 16 35 19 64 13 21 -3 43 -12 49 -20 8
-11 13 -10 26 6 9 10 14 21 11 23 -2 3 13 3 35 0 24 -3 42 -1 46 6 7 10 -26
16 -61 12 -7 -1 -18 7 -25 19 -15 24 -22 25 -43 4 -26 -27 -31 -6 -4 22 15 16
31 23 44 20 11 -2 57 -8 103 -12z m762 -29 c0 -8 -7 -11 -20 -8 -23 6 -26 19
-7 26 16 6 27 -1 27 -18z m-866 -36 c-7 -11 -44 -12 -44 -1 0 4 5 13 12 20 13
13 42 -4 32 -19z m-69 11 c3 -5 2 -10 -4 -10 -5 0 -13 5 -16 10 -3 6 -2 10 4
10 5 0 13 -4 16 -10z m-94 -31 c-13 -10 -28 -19 -35 -19 -6 0 3 11 19 24 17
13 32 22 35 19 3 -2 -6 -13 -19 -24z m1019 -8 c0 11 12 16 40 17 42 3 56 -16
20 -25 -11 -3 -20 -9 -20 -13 0 -15 -33 -21 -42 -8 -5 9 -8 6 -8 -9 0 -26 -16
-29 -45 -8 -19 15 -19 15 3 31 12 8 22 23 22 32 1 12 5 10 15 -8 9 -16 14 -19
15 -9z m-1468 -103 c-6 -6 -19 -7 -29 -4 -16 7 -16 9 7 28 23 19 25 19 28 3 2
-9 -1 -22 -6 -27z m481 1 c288 -58 337 -69 337 -80 0 -5 -7 -9 -15 -9 -19 0
-549 120 -554 126 -10 10 44 1 232 -37z m-537 -27 c-8 -9 -19 -13 -22 -9 -10
9 16 38 28 31 6 -4 4 -13 -6 -22z m219 -2 c3 -5 1 -10 -4 -10 -6 0 -11 5 -11
10 0 6 2 10 4 10 3 0 8 -4 11 -10z m1225 -10 c0 -5 -2 -10 -4 -10 -3 0 -8 5
-11 10 -3 6 -1 10 4 10 6 0 11 -4 11 -10z m-1498 -27 c-6 -3 -9 -10 -6 -15 4
-7 2 -8 -5 -4 -9 6 -9 11 0 22 6 8 15 12 18 8 3 -4 0 -9 -7 -11z m688 1 c0 -2
-7 -4 -15 -4 -8 0 -15 4 -15 10 0 5 7 7 15 4 8 -4 15 -8 15 -10z m-500 -4 c0
-5 -10 -10 -22 -10 -19 0 -20 2 -8 10 19 13 30 13 30 0z m-220 -13 c0 -2 -12
-14 -27 -28 l-28 -24 24 28 c23 25 31 32 31 24z m358 -14 c-2 -12 -13 -18 -33
-19 -17 -1 -39 -5 -50 -9 -17 -6 -17 -5 3 9 12 10 26 15 31 12 5 -3 14 1 21 9
17 20 32 19 28 -2z m-161 -18 c15 -15 -19 -46 -62 -55 l-30 -7 25 -11 c14 -6
18 -11 9 -11 -8 -1 -24 5 -34 13 -11 8 -26 12 -35 9 -8 -3 -2 7 13 21 22 20
34 25 55 19 24 -6 26 -5 14 10 -28 33 12 43 45 12z m680 -41 c-3 -3 -12 -4
-19 -1 -8 3 -5 6 6 6 11 1 17 -2 13 -5z m-651 -24 c0 -11 -4 -20 -8 -20 -5 0
-13 0 -20 0 -6 0 -3 9 7 20 22 25 23 25 21 0z m159 -18 c0 -18 -20 -15 -23 4
-3 10 1 15 10 12 7 -3 13 -10 13 -16z m1193 -32 c1 0 2 -4 2 -8 0 -4 -21 -18
-47 -31 -48 -23 -62 -19 -63 21 0 43 9 47 58 32 26 -7 48 -14 50 -14z m-119
-45 c-2 -39 -5 -42 -23 -35 -22 8 -22 17 -4 62 15 39 29 24 27 -27z m-1572 29
c-3 -3 -12 -4 -19 -1 -8 3 -5 6 6 6 11 1 17 -2 13 -5z m418 -24 c3 -5 1 -10
-4 -10 -6 0 -11 5 -11 10 0 6 2 10 4 10 3 0 8 -4 11 -10z m50 -10 c3 -5 -1
-10 -9 -10 -8 0 -18 5 -21 10 -3 6 1 10 9 10 8 0 18 -4 21 -10z m805 -24 c0
-3 -4 -8 -10 -11 -5 -3 -10 -1 -10 4 0 6 5 11 10 11 6 0 10 -2 10 -4z m-1133
-32 c-3 -3 -12 -4 -19 -1 -8 3 -5 6 6 6 11 1 17 -2 13 -5z m626 -9 c36 -8 58
-17 54 -22 -8 -7 -120 18 -132 30 -9 9 6 7 78 -8z m-16 -41 c-3 -3 -12 -4 -19
-1 -8 3 -5 6 6 6 11 1 17 -2 13 -5z m-17 -24 c0 -5 -9 -6 -20 -3 -11 3 -20 9
-20 13 0 5 9 6 20 3 11 -3 20 -9 20 -13z m780 -15 c0 -5 -5 -3 -10 5 -5 8 -10
20 -10 25 0 6 5 3 10 -5 5 -8 10 -19 10 -25z m-530 -35 c0 -5 -4 -10 -9 -10
-6 0 -13 5 -16 10 -3 6 1 10 9 10 9 0 16 -4 16 -10z m503 -33 c-21 -13 -26 -2
-12 24 12 23 12 23 19 4 5 -13 2 -23 -7 -28z m34 21 c-3 -8 -6 -5 -6 6 -1 11
2 17 5 13 3 -3 4 -12 1 -19z m-7 -79 c9 -15 7 -19 -5 -19 -9 0 -14 4 -11 9 3
5 0 9 -7 8 -6 0 -21 1 -32 2 -18 1 -18 3 5 15 29 15 36 13 50 -15z m-132 -70
c-13 -39 -28 -46 -24 -12 2 16 4 33 5 40 0 7 7 10 15 7 11 -4 12 -12 4 -35z
m-1268 -23 c0 -2 -7 -7 -16 -10 -8 -3 -12 -2 -9 4 6 10 25 14 25 6z"/>
<path d="M6072 1388 c-18 -18 -15 -25 13 -30 26 -5 29 -1 19 26 -7 19 -16 20
-32 4z"/>
<path d="M5755 1130 c-3 -5 -1 -10 4 -10 6 0 11 5 11 10 0 6 -2 10 -4 10 -3 0
-8 -4 -11 -10z"/>
<path d="M6558 763 c7 -3 16 -2 19 1 4 3 -2 6 -13 5 -11 0 -14 -3 -6 -6z"/>
<path d="M9219 1599 c-11 -8 -10 -9 6 -7 12 2 19 -2 18 -9 -2 -7 2 -13 9 -13
6 0 9 -3 5 -6 -9 -9 19 -34 38 -34 16 0 45 22 45 34 0 3 -6 6 -14 6 -8 0 -17
7 -20 16 -3 8 -10 13 -15 10 -5 -4 -20 -2 -33 3 -15 6 -30 6 -39 0z"/>
<path d="M5890 1590 c0 -5 5 -10 11 -10 5 0 7 5 4 10 -3 6 -8 10 -11 10 -2 0
-4 -4 -4 -10z"/>
<path d="M6415 1574 c52 -16 78 -17 73 -2 -3 7 -26 13 -59 14 l-54 1 40 -13z"/>
<path d="M6428 1543 c7 -3 16 -2 19 1 4 3 -2 6 -13 5 -11 0 -14 -3 -6 -6z"/>
<path d="M6357 1516 c-15 -12 -15 -15 -2 -26 10 -9 15 -9 15 -1 0 6 4 11 10
11 5 0 7 -7 4 -15 -4 -9 0 -15 10 -15 9 0 16 4 16 9 0 5 14 14 30 21 17 7 30
16 30 21 0 14 -93 10 -113 -5z"/>
<path d="M6438 1443 c7 -3 16 -2 19 1 4 3 -2 6 -13 5 -11 0 -14 -3 -6 -6z"/>
<path d="M6478 1433 c6 -2 18 -2 25 0 6 3 1 5 -13 5 -14 0 -19 -2 -12 -5z"/>
<path d="M5540 1403 c8 -3 18 -11 22 -17 5 -7 8 -4 8 7 0 11 -7 17 -22 16 -16
0 -18 -2 -8 -6z"/>
<path d="M5515 1360 c3 -5 10 -10 16 -10 5 0 9 5 9 10 0 6 -7 10 -16 10 -8 0
-12 -4 -9 -10z"/>
<path d="M2060 1243 c0 -20 41 -218 46 -222 3 -4 14 5 25 18 15 18 18 32 13
60 -4 20 -11 39 -16 42 -5 3 -9 8 -8 10 4 12 -22 60 -35 66 -9 3 -14 12 -11
19 3 8 1 14 -4 14 -6 0 -10 -3 -10 -7z"/>
<path d="M5100 1115 c0 -20 17 -28 23 -11 3 8 -1 17 -9 20 -8 3 -14 -1 -14 -9z"/>
<path d="M8003 1024 c-3 -9 0 -20 8 -25 9 -5 1 -7 -21 -3 -43 6 -72 -15 -76
-53 -3 -33 -7 -49 -21 -83 -8 -19 -7 -30 4 -47 8 -12 11 -27 8 -34 -14 -22
-13 -70 1 -76 8 -3 14 -19 14 -39 0 -19 5 -34 11 -34 8 0 7 -6 -2 -17 -13 -15
-12 -15 7 -5 12 6 24 8 28 5 10 -10 7 -51 -4 -58 -5 -3 -10 3 -10 14 0 31 -41
24 -48 -8 -2 -8 3 -11 12 -8 10 4 13 1 10 -7 -6 -16 23 -29 32 -14 4 7 9 6 14
-2 13 -22 48 -2 45 25 -1 13 2 22 6 19 5 -3 9 1 9 10 0 8 4 16 8 18 9 3 82
124 82 134 0 3 16 39 35 80 19 40 35 79 35 86 0 7 7 25 14 40 16 29 17 68 4
68 -5 0 -12 -8 -15 -17 -6 -15 -7 -15 -14 3 -7 17 -9 15 -20 -13 -8 -18 -16
-33 -20 -33 -16 0 -89 54 -89 66 0 6 -7 15 -16 18 -22 8 -24 8 -31 -10z"/>
<path d="M2153 984 c-22 -9 -33 -21 -33 -34 0 -11 3 -20 6 -20 7 0 94 62 94
67 0 7 -37 0 -67 -13z"/>
<path d="M4372 959 c-18 -12 -41 -19 -52 -16 -23 6 -23 6 -9 -27 7 -14 16 -23
20 -20 16 10 9 -5 -15 -30 -13 -15 -31 -26 -40 -26 -9 0 -16 -6 -16 -13 0 -7
-34 -46 -75 -87 -40 -40 -71 -78 -68 -83 3 -6 1 -7 -4 -4 -10 6 -31 -12 -48
-42 -5 -9 -4 -12 3 -7 8 5 11 -5 10 -29 -1 -19 -6 -35 -11 -35 -5 0 -7 -17 -4
-39 3 -22 0 -44 -6 -50 -7 -7 -7 -18 1 -36 6 -14 9 -38 6 -53 -5 -22 0 -36 21
-58 18 -19 25 -36 22 -52 -4 -19 1 -27 23 -35 15 -7 25 -16 24 -22 -8 -22 16
-37 72 -45 34 -4 64 -4 70 1 6 5 20 7 30 3 16 -5 16 -4 4 5 -12 9 -11 11 10
11 33 0 80 41 75 66 -2 10 -4 19 -5 19 -4 0 -13 80 -13 113 0 20 -6 32 -14 32
-7 0 -13 7 -13 15 0 9 9 15 25 15 18 0 23 4 19 15 -4 8 -1 15 6 15 6 0 10 6 7
13 -2 6 0 23 6 37 5 14 9 35 9 47 -1 14 9 28 34 42 43 26 55 26 48 4 -4 -14
-3 -15 4 -5 5 8 12 13 16 13 16 -2 16 0 2 15 -9 8 -20 13 -25 10 -5 -4 -12 2
-14 11 -4 14 -5 13 -6 -4 0 -13 -5 -23 -11 -23 -19 0 7 45 30 50 22 5 22 6 4
20 -14 12 -16 12 -9 1 5 -9 4 -12 -3 -7 -6 4 -9 13 -5 21 3 8 1 15 -4 15 -5 0
-8 15 -7 34 2 23 -2 36 -11 40 -8 3 -15 13 -15 21 0 10 -7 15 -17 13 -10 -2
-17 -8 -16 -14 1 -5 -9 -9 -22 -9 l-24 0 26 21 c15 12 23 26 19 33 -4 6 -11 9
-16 6 -14 -9 -22 46 -9 62 10 11 10 16 0 23 -8 4 -10 13 -7 19 10 15 6 14 -32
-10z m44 -121 c5 -7 2 -9 -8 -5 -9 3 -26 -2 -39 -11 l-24 -16 19 22 c21 24 41
28 52 10z m58 -64 c9 -8 16 -21 16 -27 0 -7 -4 -6 -10 3 -6 10 -10 11 -10 3 0
-15 -36 -17 -45 -3 -3 6 4 10 15 10 16 0 20 5 16 15 -7 19 -1 19 18 -1z m-199
-154 c3 -5 1 -10 -4 -10 -6 0 -11 5 -11 10 0 6 2 10 4 10 3 0 8 -4 11 -10z"/>
<path d="M2272 917 c-32 -16 -45 -18 -50 -9 -6 9 -16 7 -42 -6 -28 -13 -35
-23 -36 -47 -2 -69 145 -558 248 -823 l12 -32 749 0 c703 0 749 1 736 17 -12
14 -12 15 -1 9 11 -7 12 -4 3 13 -7 11 -16 21 -22 21 -6 0 -7 -4 -4 -10 3 -5
-3 -10 -15 -10 -11 0 -23 7 -26 15 -4 8 -9 13 -13 11 -4 -3 -15 6 -25 20 -11
13 -26 24 -35 24 -14 0 -14 2 -1 11 12 8 10 9 -7 4 -12 -3 -24 -1 -28 5 -9 14
-62 41 -93 46 -15 3 -29 9 -32 13 -7 12 -72 45 -90 47 -8 1 -31 11 -50 23 -19
11 -43 21 -52 21 -10 0 -18 5 -18 10 0 6 -6 10 -12 9 -28 -3 -47 2 -63 17 -9
9 -18 14 -21 11 -7 -7 -100 63 -97 73 1 5 -7 5 -19 2 -12 -3 -19 -1 -16 4 3 5
0 15 -8 22 -10 9 -14 9 -14 1 0 -6 -9 0 -20 14 -23 30 -142 111 -186 127 -57
21 -113 51 -118 63 -3 9 -5 8 -5 -1 -1 -9 -10 -6 -29 8 -15 11 -41 23 -56 26
-38 7 -68 23 -84 45 -7 10 -19 16 -27 13 -8 -3 -33 14 -61 40 -26 25 -51 46
-55 46 -5 0 -9 6 -9 14 0 8 -7 16 -15 20 -8 3 -15 12 -15 19 0 8 -11 19 -25
25 -14 6 -25 16 -25 22 0 5 -7 10 -15 10 -8 0 -15 5 -15 10 0 17 -53 10 -98
-13z m971 -607 c3 -13 -1 -24 -13 -30 -15 -8 -20 -6 -25 11 -5 14 -2 25 6 30
21 13 26 11 32 -11z m-53 -34 c0 -16 -18 -31 -27 -22 -8 8 5 36 17 36 5 0 10
-6 10 -14z m-430 -16 c0 -5 -4 -10 -10 -10 -5 0 -10 -6 -10 -14 0 -22 -35 -32
-59 -17 -11 7 -10 12 5 29 20 21 74 30 74 12z m-94 -69 c-10 -16 -36 -13 -36
3 0 17 21 27 34 16 4 -5 5 -13 2 -19z m-61 -10 c3 -5 1 -12 -5 -16 -5 -3 -10
1 -10 9 0 18 6 21 15 7z m-65 -31 c0 -5 -5 -10 -11 -10 -5 0 -7 5 -4 10 3 6 8
10 11 10 2 0 4 -4 4 -10z"/>
<path d="M8337 913 c-10 -9 -9 -23 2 -23 5 0 11 7 15 15 5 15 -5 20 -17 8z"/>
<path d="M4126 824 c-80 -47 -110 -49 -87 -5 11 19 9 20 -26 16 -93 -12 -98
-14 -115 -61 -16 -45 -16 -45 9 -57 18 -8 29 -8 43 0 14 9 22 9 36 -2 18 -13
17 -15 -15 -49 -19 -20 -30 -36 -24 -36 7 0 15 -9 18 -20 12 -39 52 -25 118
44 102 105 114 120 94 113 -15 -6 -16 -4 -6 16 6 12 21 33 33 46 19 22 19 24
2 17 -16 -5 -17 -4 -6 9 18 21 14 20 -74 -31z m19 -34 c-3 -5 -11 -10 -16 -10
-6 0 -7 5 -4 10 3 6 11 10 16 10 6 0 7 -4 4 -10z m-50 -40 c-3 -5 -11 -10 -16
-10 -6 0 -7 5 -4 10 3 6 11 10 16 10 6 0 7 -4 4 -10z"/>
<path d="M8287 763 c-4 -3 -7 -11 -7 -17 0 -6 5 -5 12 2 6 6 9 14 7 17 -3 3
-9 2 -12 -2z"/>
<path d="M7093 703 c-9 -16 -27 -39 -39 -53 -30 -33 -42 -80 -21 -80 9 0 20
-6 24 -14 12 -21 73 -31 73 -12 0 8 -4 16 -10 18 -6 2 -4 14 4 30 11 20 11 28
3 32 -9 3 -9 5 0 5 7 1 10 8 7 16 -6 14 -8 13 -20 -2 -10 -14 -15 -15 -25 -6
-10 10 -8 21 10 53 25 45 21 55 -6 13z m-3 -93 c0 -5 -9 -14 -20 -20 -22 -12
-23 -10 -14 14 7 17 34 22 34 6z"/>
<path d="M6962 628 c-2 -31 -9 -48 -25 -60 -12 -10 -18 -18 -14 -18 14 0 57
37 50 43 -3 4 0 13 6 21 13 15 7 56 -8 56 -4 0 -8 -19 -9 -42z"/>
<path d="M8266 625 c-3 -8 -2 -15 3 -15 5 0 14 7 21 15 10 12 10 15 -3 15 -8
0 -17 -7 -21 -15z"/>
<path d="M6927 603 c-4 -3 -7 -11 -7 -17 0 -6 5 -5 12 2 6 6 9 14 7 17 -3 3
-9 2 -12 -2z"/>
<path d="M4444 519 c-3 -6 -1 -16 5 -22 8 -8 11 -5 11 11 0 24 -5 28 -16 11z"/>
<path d="M4958 275 c-43 -36 -46 -45 -20 -45 23 0 65 43 60 63 -2 11 -12 7
-40 -18z"/>
<path d="M7657 181 c-15 -10 -35 -27 -43 -37 -11 -14 -17 -15 -20 -6 -3 6 -12
12 -20 12 -9 0 -12 5 -9 10 10 17 -4 11 -25 -10 -18 -18 -22 -18 -54 -5 -38
16 -70 20 -63 8 3 -5 1 -19 -4 -32 -7 -18 -15 -22 -34 -19 -14 3 -25 2 -25 -1
0 -4 -17 -11 -38 -17 -30 -8 -41 -7 -51 3 -16 18 -10 48 10 47 9 -1 15 8 15
21 0 17 -5 22 -20 20 -35 -5 -60 -18 -81 -43 -49 -59 -52 -61 -92 -55 -21 3
-43 10 -49 15 -8 5 -14 3 -18 -7 -7 -18 -49 -19 -111 -3 -41 11 -46 10 -67
-10 -33 -30 -90 -52 -137 -52 -22 0 -43 -5 -46 -10 -4 -7 176 -10 532 -10
l538 0 18 36 c19 38 22 58 8 50 -5 -3 -8 2 -7 11 1 12 -9 19 -29 23 -27 5 -30
9 -30 43 0 41 -7 44 -48 18z m-34 -96 c8 -16 7 -17 -14 -11 -13 4 -34 10 -46
13 -36 8 -27 20 13 18 23 -2 41 -9 47 -20z"/>
</g>
</svg>
